<svg width="162" height="48" viewBox="0 0 162 48" fill="none" xmlns="http://www.w3.org/2000/svg">
<path d="M1.5 6.4C1.5 3.6945 3.69452 1.5 6.40316 1.5H155.597C158.306 1.5 160.5 3.69449 160.5 6.4V41.6C160.5 44.3056 158.306 46.5 155.597 46.5H6.40316C3.69451 46.5 1.5 44.3056 1.5 41.6V6.4Z" stroke="#6F6F6F" stroke-width="3"/>
<path fill-rule="evenodd" clip-rule="evenodd" d="M0 41.6V6.4C0 2.86538 2.86679 0 6.40316 0H155.597C159.133 0 162 2.86538 162 6.4V41.6C162 45.1347 159.133 48 155.597 48H6.40316C2.8668 48 0 45.1347 0 41.6ZM0.960474 41.6V6.4C0.960474 3.39558 3.39726 0.96 6.40316 0.96H155.597C158.603 0.96 161.04 3.39558 161.04 6.4V41.6C161.04 44.6045 158.603 47.04 155.597 47.04H6.40316C3.39726 47.04 0.960474 44.6045 0.960474 41.6Z" fill="white"/>
<path d="M36.6083 24.9776C36.5917 22.1644 37.8669 20.0441 40.4422 18.4807C39.0018 16.4182 36.8228 15.2838 33.9504 15.0652C31.2306 14.8507 28.255 16.6492 27.1655 16.6492C26.0141 16.6492 23.381 15.1395 21.3092 15.1395C17.0336 15.2055 12.4897 18.5467 12.4897 25.3447C12.4897 27.3536 12.8571 29.4285 13.5917 31.5652C14.5739 34.3785 18.1149 41.2713 21.8086 41.16C23.7401 41.1145 25.1061 39.7904 27.6195 39.7904C30.0585 39.7904 31.3214 41.16 33.4759 41.16C37.2025 41.1062 40.4051 34.8406 41.3377 32.0188C36.34 29.6636 36.6083 25.122 36.6083 24.9776ZM32.2705 12.3964C34.363 9.91309 34.1732 7.65261 34.1114 6.83997C32.2625 6.94723 30.1246 8.09808 28.9071 9.51296C27.5658 11.031 26.7776 12.9078 26.9468 15.024C28.9442 15.1766 30.7684 14.1495 32.2705 12.3964Z" fill="#6F6F6F"/>
<path d="M50.715 14.385H51.7405C52.731 14.385 53.3115 14.83 53.3115 15.58V15.59C53.3115 16.285 52.7009 16.74 51.7706 16.74C50.82 16.74 50.2149 16.365 50.1349 15.7L50.1298 15.66H49.0342L49.0393 15.72C49.1142 16.91 50.1749 17.72 51.7706 17.72C53.3163 17.72 54.457 16.83 54.457 15.64V15.63C54.457 14.66 53.8615 13.975 52.8962 13.855V13.815C53.6966 13.63 54.2367 12.96 54.2367 12.16V12.15C54.2367 11.035 53.2462 10.265 51.7955 10.265C50.2847 10.265 49.2993 11.01 49.2244 12.23L49.2192 12.3H50.295L50.2998 12.23C50.3849 11.61 50.9103 11.245 51.7606 11.245C52.626 11.245 53.1264 11.63 53.1264 12.27V12.28C53.1264 12.97 52.571 13.445 51.7107 13.445H50.715V14.385Z" fill="#6F6F6F"/>
<path d="M58.0803 17.695C58.7805 17.695 59.3859 17.335 59.691 16.77H59.716V17.6H60.7965V13.975C60.7965 12.92 59.9811 12.24 58.6956 12.24C57.3999 12.24 56.6146 12.935 56.5394 13.84L56.5346 13.895H57.5549L57.5648 13.85C57.6551 13.43 58.0403 13.135 58.6655 13.135C59.3359 13.135 59.716 13.485 59.716 14.065V14.46L58.2804 14.545C57.0347 14.62 56.3242 15.18 56.3242 16.095V16.105C56.3242 17.05 57.0295 17.695 58.0803 17.695ZM57.415 16.08V16.07C57.415 15.625 57.7752 15.34 58.4254 15.3L59.716 15.22V15.63C59.716 16.315 59.1358 16.83 58.3755 16.83C57.795 16.83 57.415 16.54 57.415 16.08Z" fill="#6F6F6F"/>
<path d="M66.5505 13.2V12.34H63.064V17.6H64.1445V13.2H66.5505Z" fill="#6F6F6F"/>
<path d="M68.583 19.35H69.6635V16.715H69.6885C69.9987 17.325 70.6042 17.705 71.3495 17.705C72.6701 17.705 73.5355 16.65 73.5355 14.975V14.97C73.5355 13.29 72.6749 12.24 71.3344 12.24C70.584 12.24 70.0039 12.62 69.6885 13.245H69.6635V12.34H68.583V19.35ZM71.0543 16.775C70.2389 16.775 69.6587 16.065 69.6587 14.975V14.97C69.6587 13.875 70.2337 13.165 71.0543 13.165C71.9046 13.165 72.4348 13.85 72.4348 14.97V14.975C72.4348 16.085 71.9046 16.775 71.0543 16.775Z" fill="#6F6F6F"/>
<path d="M76.0733 19.355C77.1039 19.355 77.6542 18.935 78.0445 17.845L80.0055 12.34H78.8648L77.539 16.62H77.5041L76.1783 12.34H75.0078L76.924 17.605L76.8337 17.855C76.6537 18.365 76.3736 18.5 75.8633 18.5C75.7182 18.5 75.5931 18.48 75.5082 18.46V19.305C75.6382 19.3299 75.8633 19.355 76.0733 19.355Z" fill="#6F6F6F"/>
<path d="M83.7186 17.705C85.0092 17.705 85.8646 17.05 85.8646 16.07V16.06C85.8646 15.445 85.4843 15.025 84.7889 14.885V14.845C85.3543 14.715 85.7196 14.27 85.7196 13.705V13.695C85.7196 12.795 84.9791 12.24 83.7685 12.24C82.583 12.24 81.8076 12.8 81.6824 13.735L81.6776 13.775H82.7079L82.713 13.74C82.793 13.34 83.1881 13.095 83.7535 13.095C84.3237 13.095 84.664 13.36 84.664 13.81V13.82C84.664 14.29 84.3387 14.53 83.7035 14.53H82.948V15.315H83.7084C84.439 15.315 84.7889 15.555 84.7889 16.06V16.07C84.7889 16.55 84.3788 16.845 83.7135 16.845C83.1183 16.845 82.728 16.615 82.608 16.19L82.5929 16.14H81.5322L81.5373 16.185C81.6424 17.115 82.4879 17.705 83.7186 17.705Z" fill="#6F6F6F"/>
<path d="M87.9419 17.6H89.0074L91.4233 13.905H91.4684V17.6H92.5438V12.34H91.4784L89.0624 16.02H89.0122V12.34H87.9419V17.6Z" fill="#6F6F6F"/>
<path d="M98.8334 12.34H94.4565V13.2H96.1022V17.6H97.1878V13.2H98.8334V12.34Z" fill="#6F6F6F"/>
<path d="M102.897 17.705C104.173 17.705 104.988 16.945 105.153 16.11L105.168 16.055H104.137L104.123 16.095C103.988 16.49 103.562 16.82 102.922 16.82C102.061 16.82 101.516 16.24 101.496 15.245H105.223V14.88C105.223 13.3 104.318 12.24 102.842 12.24C101.366 12.24 100.416 13.34 100.416 14.985V14.99C100.416 16.65 101.351 17.705 102.897 17.705ZM102.847 13.125C103.552 13.125 104.068 13.57 104.152 14.48H101.511C101.611 13.6 102.147 13.125 102.847 13.125Z" fill="#6F6F6F"/>
<path d="M110.488 17.6H112.91C114.05 17.6 114.76 17.01 114.76 16.09V16.08C114.76 15.435 114.31 14.965 113.63 14.875V14.835C114.135 14.74 114.525 14.245 114.525 13.7V13.6899C114.525 12.855 113.905 12.34 112.88 12.34H110.488V17.6ZM111.559 14.51V13.14H112.654C113.175 13.14 113.455 13.375 113.455 13.81V13.82C113.455 14.285 113.155 14.51 112.544 14.51H111.559ZM111.559 16.8V15.295H112.584C113.295 15.295 113.65 15.53 113.65 16.035V16.045C113.65 16.545 113.32 16.8 112.71 16.8H111.559Z" fill="#6F6F6F"/>
<path d="M59.1505 34.7353H57.0308L55.8695 31.0717H51.8339L50.7278 34.7353H48.6641L52.6625 22.2626H55.1322L59.1505 34.7353ZM55.5196 29.5346L54.4695 26.2777C54.3587 25.945 54.1503 25.1615 53.8433 23.928H53.8061C53.6838 24.4585 53.4869 25.2421 53.2161 26.2777L52.1848 29.5346H55.5196Z" fill="#6F6F6F"/>
<path d="M69.4332 30.128C69.4332 31.6576 69.0218 32.8666 68.1983 33.7543C67.461 34.5444 66.5453 34.939 65.4523 34.939C64.2725 34.939 63.4251 34.5134 62.909 33.6625H62.8715V38.4001H60.8817V28.7025C60.8817 27.7409 60.8564 26.754 60.8081 25.7418H62.5581L62.6692 27.1673H62.7063C63.37 26.0932 64.3772 25.5571 65.7286 25.5571C66.7851 25.5571 67.6672 25.9761 68.3728 26.8149C69.0803 27.6547 69.4332 28.7587 69.4332 30.128ZM67.4059 30.2011C67.4059 29.3258 67.21 28.6041 66.8162 28.0361C66.3859 27.4438 65.808 27.1476 65.0838 27.1476C64.5927 27.1476 64.1467 27.3126 63.7481 27.6378C63.3486 27.9658 63.0873 28.3942 62.965 28.9246C62.9035 29.172 62.8725 29.3745 62.8725 29.5338V31.0334C62.8725 31.6876 63.0723 32.2398 63.4718 32.6903C63.8714 33.1412 64.3904 33.3662 65.0287 33.3662C65.7782 33.3662 66.3616 33.0756 66.7787 32.4964C67.1969 31.9163 67.4059 31.1515 67.4059 30.2011Z" fill="#6F6F6F"/>
<path d="M79.7353 30.128C79.7353 31.6576 79.3235 32.8666 78.4994 33.7543C77.7631 34.5444 76.8474 34.939 75.7544 34.939C74.5746 34.939 73.7272 34.5134 73.212 33.6625H73.1746V38.4001H71.1848V28.7025C71.1848 27.7409 71.1595 26.754 71.1108 25.7418H72.8611L72.9719 27.1673H73.0094C73.6721 26.0932 74.6793 25.5571 76.0317 25.5571C77.0872 25.5571 77.9693 25.9761 78.6768 26.8149C79.3815 27.6547 79.7353 28.7587 79.7353 30.128ZM77.708 30.2011C77.708 29.3258 77.5111 28.6041 77.1173 28.0361C76.687 27.4438 76.1111 27.1476 75.3859 27.1476C74.8938 27.1476 74.4488 27.3126 74.0492 27.6378C73.6497 27.9658 73.3894 28.3942 73.2671 28.9246C73.2063 29.172 73.1746 29.3745 73.1746 29.5338V31.0334C73.1746 31.6876 73.3744 32.2398 73.772 32.6903C74.1716 33.1402 74.6905 33.3662 75.3308 33.3662C76.0803 33.3662 76.6637 33.0756 77.0808 32.4964C77.499 31.9163 77.708 31.1515 77.708 30.2011Z" fill="#6F6F6F"/>
<path d="M91.2533 31.2377C91.2533 32.2985 90.8863 33.1619 90.15 33.8281C89.3409 34.5564 88.2143 34.92 86.7666 34.92C85.4299 34.92 84.3583 34.6614 83.5474 34.143L84.0084 32.4777C84.8821 33.0083 85.8407 33.2742 86.885 33.2742C87.6345 33.2742 88.2178 33.1036 88.6369 32.7644C89.0541 32.4252 89.2625 31.9697 89.2625 31.4017C89.2625 30.8956 89.0906 30.4692 88.7461 30.1233C88.4035 29.7775 87.8314 29.456 87.0326 29.1589C84.8578 28.3444 83.7715 27.1513 83.7715 25.5824C83.7715 24.5571 84.1521 23.7164 84.9148 23.0622C85.6745 22.4071 86.6881 22.08 87.9556 22.08C89.0861 22.08 90.0248 22.2777 90.7743 22.6723L90.2771 24.3012C89.5769 23.9188 88.7855 23.7276 87.8996 23.7276C87.1997 23.7276 86.6526 23.901 86.2607 24.2459C85.9293 24.5543 85.7632 24.9301 85.7632 25.3753C85.7632 25.8683 85.9527 26.276 86.3334 26.5965C86.6647 26.8927 87.267 27.2132 88.1404 27.559C89.209 27.9911 89.9941 28.4963 90.499 29.0755C91.0023 29.6528 91.2533 30.3754 91.2533 31.2377Z" fill="#6F6F6F"/>
<path d="M97.8325 27.2415H95.6391V31.608C95.6391 32.7187 96.0255 33.2736 96.8003 33.2736C97.156 33.2736 97.4508 33.2426 97.6842 33.1808L97.7393 34.6983C97.3471 34.8451 96.831 34.9194 96.1917 34.9194C95.4057 34.9194 94.7916 34.6784 94.3482 34.1978C93.9067 33.7159 93.6848 32.9079 93.6848 31.773V27.2396H92.3779V25.74H93.6848V24.0933L95.6391 23.501V25.74H97.8325V27.2415Z" fill="#6F6F6F"/>
<path d="M107.729 30.1645C107.729 31.5469 107.335 32.6819 106.549 33.5696C105.725 34.4832 104.631 34.9389 103.268 34.9389C101.954 34.9389 100.907 34.5011 100.127 33.6256C99.3465 32.7504 98.9565 31.6453 98.9565 30.3135C98.9565 28.9199 99.3577 27.7783 100.163 26.8908C100.967 26.0022 102.052 25.558 103.415 25.558C104.729 25.558 105.787 25.9957 106.585 26.872C107.349 27.7221 107.729 28.8196 107.729 30.1645ZM105.664 30.2292C105.664 29.3997 105.488 28.6884 105.131 28.0951C104.714 27.3772 104.117 27.0191 103.344 27.0191C102.544 27.0191 101.937 27.3781 101.519 28.0951C101.162 28.6893 100.986 29.4119 100.986 30.2667C100.986 31.0961 101.162 31.8075 101.519 32.3997C101.95 33.1178 102.551 33.4758 103.326 33.4758C104.086 33.4758 104.683 33.1104 105.113 32.3811C105.48 31.7765 105.664 31.0577 105.664 30.2292Z" fill="#6F6F6F"/>
<path d="M114.197 27.4991C114 27.4625 113.79 27.4438 113.57 27.4438C112.87 27.4438 112.329 27.709 111.948 28.2404C111.616 28.7091 111.45 29.3014 111.45 30.0165V34.7354H109.461L109.48 28.5741C109.48 27.5375 109.455 26.5937 109.405 25.7427H111.138L111.211 27.4635H111.266C111.476 26.8721 111.808 26.3959 112.261 26.0389C112.705 25.7174 113.183 25.5571 113.7 25.5571C113.884 25.5571 114.049 25.5703 114.197 25.5937V27.4991Z" fill="#6F6F6F"/>
<path d="M123.096 29.8131C123.096 30.1712 123.073 30.473 123.024 30.7194H117.054C117.077 31.6079 117.366 32.2874 117.92 32.7562C118.423 33.1751 119.074 33.385 119.873 33.385C120.757 33.385 121.563 33.2435 122.288 32.9594L122.6 34.3466C121.752 34.7178 120.752 34.9024 119.597 34.9024C118.209 34.9024 117.118 34.4919 116.325 33.6717C115.533 32.8515 115.137 31.7504 115.137 30.3689C115.137 29.0127 115.506 27.8834 116.244 26.9827C117.017 26.0211 118.061 25.5403 119.375 25.5403C120.666 25.5403 121.643 26.0211 122.307 26.9827C122.832 27.7465 123.096 28.6913 123.096 29.8131ZM121.199 29.2948C121.212 28.7025 121.082 28.1908 120.813 27.7587C120.468 27.2029 119.939 26.9255 119.227 26.9255C118.576 26.9255 118.047 27.1964 117.643 27.74C117.312 28.172 117.115 28.6903 117.054 29.2939H121.199V29.2948Z" fill="#6F6F6F"/>
</svg>
