<svg width="162" height="48" viewBox="0 0 162 48" fill="none" xmlns="http://www.w3.org/2000/svg">
<path d="M1.5 6.4C1.5 3.6945 3.69452 1.5 6.40316 1.5H155.597C158.306 1.5 160.5 3.69449 160.5 6.4V41.6C160.5 44.3056 158.306 46.5 155.597 46.5H6.40316C3.69451 46.5 1.5 44.3056 1.5 41.6V6.4Z" stroke="#6F6F6F" stroke-width="3"/>
<path fill-rule="evenodd" clip-rule="evenodd" d="M0 41.6V6.4C0 2.86538 2.86679 0 6.40316 0H155.597C159.133 0 162 2.86538 162 6.4V41.6C162 45.1347 159.133 48 155.597 48H6.40316C2.8668 48 0 45.1347 0 41.6ZM0.960474 41.6V6.4C0.960474 3.39558 3.39726 0.96 6.40316 0.96H155.597C158.603 0.96 161.04 3.39558 161.04 6.4V41.6C161.04 44.6045 158.603 47.04 155.597 47.04H6.40316C3.39726 47.04 0.960474 44.6045 0.960474 41.6Z" fill="white"/>
<path d="M82.0835 26.0767C79.2005 26.0767 76.8185 28.327 76.8185 31.4124C76.8185 34.4727 79.1755 36.7482 82.0835 36.7482C84.9915 36.7482 87.3482 34.4976 87.3482 31.4124C87.3482 28.327 84.9915 26.0767 82.0835 26.0767ZM82.0835 34.625C80.5035 34.625 79.1255 33.2842 79.1255 31.3886C79.1255 29.4667 80.5045 28.1523 82.0835 28.1523C83.6622 28.1523 85.0411 29.4667 85.0411 31.3886C85.0411 33.2842 83.6622 34.625 82.0835 34.625ZM70.626 26.0767C67.718 26.0767 65.361 28.327 65.361 31.4124C65.361 34.4727 67.718 36.7482 70.626 36.7482C73.534 36.7482 75.891 34.4976 75.891 31.4124C75.891 28.327 73.534 26.0767 70.6257 26.0767H70.626ZM70.626 34.625C69.046 34.625 67.6684 33.2842 67.6684 31.3886C67.6684 29.4667 69.0473 28.1523 70.626 28.1523C72.206 28.1523 73.5839 29.4667 73.5839 31.3886C73.5839 33.2842 72.2297 34.625 70.626 34.625ZM57.0125 27.7206V29.9709H62.3272C62.1761 31.2352 61.7512 32.1709 61.124 32.8036C60.347 33.5872 59.1435 34.4474 57.0125 34.4474C53.7277 34.4474 51.1966 31.7671 51.1966 28.454C51.1966 25.1411 53.729 22.4101 57.0125 22.4101C58.792 22.4101 60.0713 23.1183 61.0241 24.0291L62.6028 22.4353C61.2735 21.146 59.4941 20.16 57.0125 20.16C52.5242 20.16 48.7637 23.8768 48.7637 28.4037C48.7637 32.9309 52.5242 36.6477 57.0125 36.6477C59.4441 36.6477 61.2498 35.8388 62.7037 34.3207C64.1828 32.8288 64.6342 30.7293 64.6342 29.0353C64.6342 28.5044 64.5843 28.0238 64.5084 27.6189L57.0125 27.7206ZM112.72 29.4653C112.293 28.2766 110.94 26.0767 108.231 26.0767C105.523 26.0767 103.292 28.2265 103.292 31.4124C103.292 34.3959 105.523 36.7482 108.482 36.7482C110.889 36.7482 112.268 35.2564 112.845 34.3959L111.065 33.1821C110.463 34.0679 109.661 34.6487 108.482 34.6487C107.304 34.6487 106.477 34.1178 105.95 33.0301L112.944 30.0717L112.72 29.4653ZM105.599 31.2615C105.549 29.2125 107.179 28.1508 108.331 28.1508C109.259 28.1508 110.012 28.6061 110.287 29.2892L105.599 31.2615ZM99.9083 36.3946H102.215V20.7661H99.9083V36.3946ZM96.1484 27.2654H96.0734C95.5474 26.6327 94.5697 26.0767 93.3153 26.0767C90.6826 26.0767 88.301 28.4289 88.301 31.4124C88.301 34.3959 90.7076 36.7232 93.3153 36.7232C94.5684 36.7232 95.5461 36.1668 96.0734 35.5092H96.1484V36.2676C96.1484 38.3168 95.0697 39.4032 93.3402 39.4032C91.936 39.4032 91.0582 38.3668 90.7076 37.5066L88.7028 38.3668C89.2784 39.7831 90.8088 41.5277 93.3402 41.5277C96.0475 41.5277 98.3293 39.9092 98.3293 35.9898V26.4051H96.1484V27.2654ZM93.516 34.625C91.936 34.625 90.608 33.2842 90.608 31.4138C90.608 29.5434 91.9373 28.1772 93.516 28.1772C95.071 28.1772 96.3241 29.5434 96.3241 31.4138C96.3232 33.2589 95.0697 34.625 93.516 34.625ZM123.475 20.7664H117.96V36.3946H120.267V30.4765H123.475C126.033 30.4765 128.539 28.6047 128.539 25.6214C128.539 22.638 126.033 20.7661 123.475 20.7661V20.7664ZM123.55 28.3032H120.29V22.9409H123.55C125.255 22.9409 126.257 24.3824 126.257 25.6212C126.233 26.8351 125.256 28.3032 123.55 28.3032ZM137.741 26.0515C136.086 26.0515 134.356 26.785 133.654 28.454L135.686 29.3144C136.137 28.454 136.939 28.1761 137.792 28.1761C138.995 28.1761 140.199 28.9093 140.224 30.1985V30.3508C139.797 30.098 138.921 29.7433 137.817 29.7433C135.611 29.7433 133.379 30.9824 133.379 33.2589C133.379 35.3581 135.184 36.698 137.19 36.698C138.744 36.698 139.596 35.9898 140.123 35.1556H140.198V36.3696H142.428V30.3757C142.404 27.6198 140.373 26.0512 137.741 26.0512V26.0515ZM137.465 34.5997C136.713 34.5997 135.66 34.2199 135.66 33.2852C135.66 32.0714 136.963 31.6162 138.091 31.6162C139.094 31.6162 139.57 31.8438 140.198 32.1469C140.022 33.5885 138.793 34.5997 137.465 34.5997ZM150.477 26.4064L147.844 33.1581H147.769L145.037 26.4062H142.556L146.667 35.8637L144.335 41.1492H146.741L153.034 26.4062H150.476L150.477 26.4064ZM129.818 36.3946H132.125V20.7661H129.818V36.3946Z" fill="#6F6F6F"/>
<path d="M55.7346 13.4413V15.7619H54.7755V14.4H50.365V15.7619H49.4058V13.4413H50.1229C50.3621 13.1068 50.5385 12.6259 50.6518 11.9987C50.7655 11.3655 50.8221 10.6786 50.8221 9.9379V7.98462H55.0265V13.4413H55.7346ZM54.0224 13.4413V8.94334H51.8172V10.1081C51.8172 10.7772 51.7634 11.3984 51.6558 11.9718C51.5543 12.5453 51.3991 13.0351 51.1897 13.4413H54.0224Z" fill="#6F6F6F"/>
<path d="M59.8048 14.5433C59.1831 14.5433 58.6183 14.3969 58.1105 14.1042C57.6024 13.8056 57.2019 13.3994 56.909 12.8857C56.6221 12.372 56.479 11.8075 56.479 11.1922C56.479 10.577 56.6221 10.0155 56.909 9.50775C57.2019 8.99405 57.6024 8.58784 58.1105 8.28919C58.6183 7.99053 59.1831 7.84119 59.8048 7.84119C60.4262 7.84119 60.9881 7.99053 61.4901 8.28919C61.9979 8.58784 62.3984 8.99405 62.691 9.50775C62.984 10.0155 63.1306 10.577 63.1306 11.1922C63.1306 11.8075 62.984 12.372 62.691 12.8857C62.4042 13.3994 62.0068 13.8056 61.4991 14.1042C60.991 14.3969 60.4262 14.5433 59.8048 14.5433ZM59.8048 13.5845C60.229 13.5845 60.6174 13.483 60.9702 13.2799C61.3227 13.0768 61.6006 12.7961 61.8039 12.4377C62.0069 12.0733 62.1083 11.6581 62.1083 11.1922C62.1083 10.7263 62.0069 10.3141 61.8039 9.95575C61.6006 9.59136 61.3227 9.30765 60.9702 9.10455C60.6174 8.90144 60.229 8.79991 59.8048 8.79991C59.3803 8.79991 58.9919 8.90144 58.6391 9.10455C58.2866 9.30765 58.0058 9.59136 57.7965 9.95575C57.5935 10.3141 57.4917 10.7263 57.4917 11.1922C57.4917 11.6581 57.5935 12.0733 57.7965 12.4377C58.0058 12.7961 58.2866 13.0768 58.6391 13.2799C58.9919 13.483 59.3803 13.5845 59.8048 13.5845Z" fill="#6F6F6F"/>
<path d="M67.2204 14.5433C66.5986 14.5433 66.031 14.3969 65.5171 14.1042C65.003 13.8115 64.5996 13.4083 64.3069 12.8946C64.014 12.3809 63.8677 11.8134 63.8677 11.1922C63.8677 10.571 64.014 10.0035 64.3069 9.48983C64.5996 8.97613 65.003 8.57293 65.5171 8.28023C66.031 7.98752 66.5986 7.84119 67.2204 7.84119C67.7045 7.84119 68.1437 7.93079 68.5381 8.10999C68.9383 8.28919 69.2912 8.54903 69.596 8.88951L68.8788 9.57943C68.6576 9.31661 68.4126 9.12247 68.1437 8.99703C67.8748 8.8656 67.5668 8.79991 67.2204 8.79991C66.7901 8.79991 66.3956 8.89847 66.0371 9.09559C65.6843 9.29271 65.4035 9.57344 65.1944 9.93783C64.985 10.2962 64.8807 10.7144 64.8807 11.1922C64.8807 11.6701 64.985 12.0912 65.1944 12.4556C65.4035 12.814 65.6843 13.0917 66.0371 13.2889C66.3956 13.486 66.7901 13.5845 67.2204 13.5845C67.9375 13.5845 68.5471 13.2859 69.0491 12.6885L69.7752 13.3874C69.4644 13.7518 69.0907 14.0355 68.6547 14.2386C68.2183 14.4417 67.7403 14.5433 67.2204 14.5433Z" fill="#6F6F6F"/>
<path d="M72.1962 8.94334H70.4033V7.98462H74.9931V8.94334H73.2002V14.4H72.1962V8.94334Z" fill="#6F6F6F"/>
<path d="M76.6551 14.5433C76.4339 14.5433 76.2456 14.5045 76.0904 14.4269V13.4502C76.2876 13.5577 76.4669 13.6115 76.6282 13.6115C76.7896 13.6115 76.918 13.5816 77.0137 13.5219C77.1094 13.4562 77.1959 13.3367 77.2737 13.1635L77.4978 12.6976L75.3643 7.98462H76.4848L77.9819 11.5417H78.0357L79.5417 7.98462H80.6622L78.206 13.3785C78.0267 13.7788 77.8087 14.0744 77.5516 14.2656C77.3006 14.4508 77.0019 14.5433 76.6551 14.5433Z" fill="#6F6F6F"/>
<path d="M81.5327 7.98462H86.3108V14.4H85.3067V8.94334H82.5367V14.4H81.5327V7.98462Z" fill="#6F6F6F"/>
<path d="M87.7744 7.98462H88.7784V10.6457H91.7546V7.98462H92.7497V14.4H91.7546V11.5955H88.7784V14.4H87.7744V7.98462Z" fill="#6F6F6F"/>
<path d="M97.1329 14.5433C96.5115 14.5433 95.9468 14.3969 95.4387 14.1042C94.9309 13.8056 94.5304 13.3994 94.2374 12.8857C93.9506 12.372 93.8071 11.8075 93.8071 11.1922C93.8071 10.577 93.9506 10.0155 94.2374 9.50775C94.5304 8.99405 94.9309 8.58784 95.4387 8.28919C95.9468 7.99053 96.5115 7.84119 97.1329 7.84119C97.7547 7.84119 98.3162 7.99053 98.8183 8.28919C99.3263 8.58784 99.7269 8.99405 100.019 9.50775C100.312 10.0155 100.459 10.577 100.459 11.1922C100.459 11.8075 100.312 12.372 100.019 12.8857C99.7326 13.3994 99.3353 13.8056 98.8272 14.1042C98.3194 14.3969 97.7547 14.5433 97.1329 14.5433ZM97.1329 13.5845C97.5575 13.5845 97.9458 13.483 98.2983 13.2799C98.6511 13.0768 98.929 12.7961 99.132 12.4377C99.3353 12.0733 99.4368 11.6581 99.4368 11.1922C99.4368 10.7263 99.3353 10.3141 99.132 9.95575C98.929 9.59136 98.6511 9.30765 98.2983 9.10455C97.9458 8.90144 97.5575 8.79991 97.1329 8.79991C96.7087 8.79991 96.3204 8.90144 95.9676 9.10455C95.6151 9.30765 95.3343 9.59136 95.1249 9.95575C94.9219 10.3141 94.8201 10.7263 94.8201 11.1922C94.8201 11.6581 94.9219 12.0733 95.1249 12.4377C95.3343 12.7961 95.6151 13.0768 95.9676 13.2799C96.3204 13.483 96.7087 13.5845 97.1329 13.5845Z" fill="#6F6F6F"/>
<path d="M103.707 7.98462H106.118C106.459 7.98462 106.773 8.05927 107.06 8.20862C107.353 8.35796 107.586 8.56404 107.759 8.82686C107.932 9.08968 108.019 9.3794 108.019 9.69598C108.019 10.0126 107.938 10.2873 107.777 10.5203C107.622 10.7533 107.415 10.9295 107.158 11.0489V11.1027C107.481 11.2162 107.741 11.4044 107.938 11.6672C108.142 11.93 108.243 12.2376 108.243 12.5901C108.243 12.9425 108.151 13.2561 107.965 13.5309C107.786 13.8056 107.541 14.0207 107.23 14.176C106.925 14.3253 106.591 14.4 106.226 14.4H103.707V7.98462ZM106.074 10.6726C106.361 10.6726 106.591 10.583 106.764 10.4038C106.943 10.2246 107.033 10.0185 107.033 9.78558C107.033 9.55262 106.946 9.34951 106.773 9.1763C106.606 8.9971 106.385 8.9075 106.109 8.9075H104.711V10.6726H106.074ZM106.226 13.4681C106.531 13.4681 106.773 13.3726 106.952 13.1814C107.138 12.9903 107.23 12.7693 107.23 12.5184C107.23 12.2615 107.135 12.0405 106.943 11.8553C106.758 11.6642 106.507 11.5686 106.19 11.5686H104.711V13.4681H106.226Z" fill="#6F6F6F"/>
<path fill-rule="evenodd" clip-rule="evenodd" d="M34.6048 28.9001L29.8119 24.0628L34.6009 19.2018C38.0215 21.1043 40.6481 22.5579 41.1527 22.8245C42.7826 23.7086 41.9543 24.8469 41.1527 25.2773C40.9791 25.3642 39.533 26.1663 37.3873 27.3564L37.3854 27.3574C37.0399 27.549 36.6762 27.7507 36.2971 27.9612C35.7622 28.2581 35.1958 28.5725 34.6048 28.9001ZM33.732 29.3837L29.138 24.7469L13.7862 40.3293C13.9712 40.273 14.1676 40.1879 14.3772 40.0717C14.5343 39.985 14.9163 39.7744 15.4778 39.4647L15.5081 39.448L15.5112 39.4464C18.6709 37.7047 27.3464 32.9223 33.732 29.3837ZM12.532 40.234C12.0815 39.9277 11.8457 39.2871 11.8457 38.4778V9.77418C11.8457 8.87943 12.1583 8.32887 12.5912 8.04663L28.4621 24.0647L12.532 40.234ZM13.7662 7.86816L29.136 23.3806L33.7125 18.7353C30.8747 17.1733 15.4019 8.65725 14.377 8.10714C14.1822 7.99034 13.9748 7.91175 13.7662 7.86816Z" fill="#6F6F6F"/>
</svg>
