<svg width="162" height="48" viewBox="0 0 162 48" fill="none" xmlns="http://www.w3.org/2000/svg">
<path d="M1.5 6.4C1.5 3.6945 3.69452 1.5 6.40316 1.5H155.597C158.306 1.5 160.5 3.69449 160.5 6.4V41.6C160.5 44.3056 158.306 46.5 155.597 46.5H6.40316C3.69451 46.5 1.5 44.3056 1.5 41.6V6.4Z" stroke="white" stroke-width="3"/>
<path fill-rule="evenodd" clip-rule="evenodd" d="M0 41.6V6.4C0 2.86538 2.86679 0 6.40316 0H155.597C159.133 0 162 2.86538 162 6.4V41.6C162 45.1347 159.133 48 155.597 48H6.40316C2.8668 48 0 45.1347 0 41.6ZM0.960474 41.6V6.4C0.960474 3.39558 3.39726 0.96 6.40316 0.96H155.597C158.603 0.96 161.04 3.39558 161.04 6.4V41.6C161.04 44.6045 158.603 47.04 155.597 47.04H6.40316C3.39726 47.04 0.960474 44.6045 0.960474 41.6Z" fill="white"/>
<path d="M36.6083 24.9775C36.5917 22.1642 37.8669 20.044 40.4422 18.4806C39.0018 16.4181 36.8228 15.2837 33.9504 15.0651C31.2306 14.8506 28.255 16.6491 27.1655 16.6491C26.0141 16.6491 23.381 15.1393 21.3092 15.1393C17.0336 15.2053 12.4897 18.5466 12.4897 25.3446C12.4897 27.3535 12.8571 29.4284 13.5917 31.5651C14.5739 34.3784 18.1149 41.2712 21.8086 41.1598C23.7401 41.1144 25.1061 39.7902 27.6195 39.7902C30.0585 39.7902 31.3214 41.1598 33.4759 41.1598C37.2025 41.1061 40.4051 34.8405 41.3377 32.0187C36.34 29.6635 36.6083 25.1219 36.6083 24.9775ZM32.2705 12.3962C34.363 9.91296 34.1732 7.65248 34.1114 6.83984C32.2625 6.94711 30.1246 8.09796 28.9071 9.51284C27.5658 11.0309 26.7776 12.9077 26.9468 15.0238C28.9442 15.1765 30.7684 14.1493 32.2705 12.3962Z" fill="white"/>
<path d="M50.715 14.3851H51.7405C52.731 14.3851 53.3115 14.8302 53.3115 15.5801V15.5902C53.3115 16.2851 52.7009 16.7401 51.7706 16.7401C50.82 16.7401 50.2149 16.3651 50.1349 15.7001L50.1298 15.6601H49.0342L49.0393 15.7201C49.1142 16.9102 50.1749 17.7201 51.7706 17.7201C53.3163 17.7201 54.457 16.8302 54.457 15.6401V15.6302C54.457 14.6601 53.8615 13.9752 52.8962 13.8552V13.8152C53.6966 13.6302 54.2367 12.9601 54.2367 12.1601V12.1502C54.2367 11.0352 53.2462 10.2651 51.7955 10.2651C50.2847 10.2651 49.2993 11.0101 49.2244 12.2302L49.2192 12.3001H50.295L50.2998 12.2302C50.3849 11.6101 50.9103 11.2451 51.7606 11.2451C52.626 11.2451 53.1264 11.6302 53.1264 12.2702V12.2801C53.1264 12.9701 52.571 13.4451 51.7107 13.4451H50.715V14.3851Z" fill="white"/>
<path d="M58.0803 17.6952C58.7805 17.6952 59.3859 17.3352 59.691 16.7702H59.716V17.6002H60.7965V13.9752C60.7965 12.9202 59.9811 12.2402 58.6956 12.2402C57.3999 12.2402 56.6146 12.9352 56.5394 13.8402L56.5346 13.8952H57.5549L57.5648 13.8502C57.6551 13.4302 58.0403 13.1352 58.6655 13.1352C59.3359 13.1352 59.716 13.4852 59.716 14.0652V14.4602L58.2804 14.5452C57.0347 14.6202 56.3242 15.1802 56.3242 16.0952V16.1052C56.3242 17.0502 57.0295 17.6952 58.0803 17.6952ZM57.415 16.0802V16.0702C57.415 15.6252 57.7752 15.3402 58.4254 15.3002L59.716 15.2202V15.6302C59.716 16.3152 59.1358 16.8302 58.3755 16.8302C57.795 16.8302 57.415 16.5402 57.415 16.0802Z" fill="white"/>
<path d="M66.551 13.1998V12.3398H63.0645V17.5998H64.145V13.1998H66.551Z" fill="white"/>
<path d="M68.583 19.3503H69.6635V16.7152H69.6885C69.9987 17.3252 70.6042 17.7052 71.3495 17.7052C72.6701 17.7052 73.5355 16.6502 73.5355 14.9752V14.9702C73.5355 13.2902 72.6749 12.2402 71.3344 12.2402C70.584 12.2402 70.0039 12.6202 69.6885 13.2452H69.6635V12.3402H68.583V19.3503ZM71.0543 16.7752C70.2389 16.7752 69.6587 16.0652 69.6587 14.9752V14.9702C69.6587 13.8752 70.2337 13.1652 71.0543 13.1652C71.9046 13.1652 72.4348 13.8502 72.4348 14.9702V14.9752C72.4348 16.0852 71.9046 16.7752 71.0543 16.7752Z" fill="white"/>
<path d="M76.0733 19.3549C77.1039 19.3549 77.6542 18.9349 78.0445 17.8448L80.0055 12.3398H78.8648L77.539 16.6198H77.5041L76.1783 12.3398H75.0078L76.924 17.6048L76.8337 17.8549C76.6537 18.3648 76.3736 18.4998 75.8633 18.4998C75.7182 18.4998 75.5931 18.4798 75.5082 18.4598V19.3048C75.6382 19.3298 75.8633 19.3549 76.0733 19.3549Z" fill="white"/>
<path d="M83.7186 17.7052C85.0092 17.7052 85.8646 17.0502 85.8646 16.0702V16.0602C85.8646 15.4452 85.4843 15.0252 84.7889 14.8852V14.8452C85.3543 14.7152 85.7196 14.2702 85.7196 13.7052V13.6952C85.7196 12.7952 84.9791 12.2402 83.7685 12.2402C82.583 12.2402 81.8076 12.8002 81.6824 13.7352L81.6776 13.7752H82.7079L82.713 13.7402C82.793 13.3402 83.1881 13.0952 83.7535 13.0952C84.3237 13.0952 84.664 13.3602 84.664 13.8102V13.8202C84.664 14.2902 84.3387 14.5302 83.7035 14.5302H82.948V15.3152H83.7084C84.439 15.3152 84.7889 15.5552 84.7889 16.0602V16.0702C84.7889 16.5502 84.3788 16.8452 83.7135 16.8452C83.1183 16.8452 82.728 16.6152 82.608 16.1902L82.5929 16.1402H81.5322L81.5373 16.1852C81.6424 17.1152 82.4879 17.7052 83.7186 17.7052Z" fill="white"/>
<path d="M87.9424 17.5998H89.0079L91.4238 13.9048H91.4689V17.5998H92.5443V12.3398H91.4788L89.0629 16.0198H89.0127V12.3398H87.9424V17.5998Z" fill="white"/>
<path d="M98.8339 12.3398H94.457V13.1998H96.1026V17.5998H97.1883V13.1998H98.8339V12.3398Z" fill="white"/>
<path d="M102.897 17.7052C104.173 17.7052 104.989 16.9452 105.153 16.1102L105.168 16.0552H104.138L104.123 16.0952C103.988 16.4902 103.563 16.8202 102.923 16.8202C102.062 16.8202 101.517 16.2402 101.497 15.2452H105.224V14.8802C105.224 13.3002 104.318 12.2402 102.842 12.2402C101.367 12.2402 100.416 13.3402 100.416 14.9852V14.9902C100.416 16.6502 101.352 17.7052 102.897 17.7052ZM102.847 13.1252C103.553 13.1252 104.068 13.5702 104.153 14.4802H101.512C101.612 13.6002 102.147 13.1252 102.847 13.1252Z" fill="white"/>
<path d="M110.488 17.5998H112.91C114.05 17.5998 114.76 17.0098 114.76 16.0898V16.0798C114.76 15.4349 114.31 14.9648 113.63 14.8749V14.8349C114.135 14.7398 114.525 14.2448 114.525 13.6998V13.6898C114.525 12.8549 113.905 12.3398 112.88 12.3398H110.488V17.5998ZM111.559 14.5099V13.1398H112.654C113.175 13.1398 113.455 13.3749 113.455 13.8098V13.8198C113.455 14.2848 113.155 14.5099 112.544 14.5099H111.559ZM111.559 16.7998V15.2949H112.584C113.295 15.2949 113.65 15.5298 113.65 16.0349V16.0448C113.65 16.5448 113.32 16.7998 112.71 16.7998H111.559Z" fill="white"/>
<path d="M59.1505 34.7355H57.0308L55.8695 31.0718H51.8339L50.7278 34.7355H48.6641L52.6625 22.2627H55.1322L59.1505 34.7355ZM55.5196 29.5347L54.4695 26.2778C54.3587 25.9451 54.1503 25.1616 53.8433 23.9282H53.8061C53.6838 24.4587 53.4869 25.2422 53.2161 26.2778L52.1848 29.5347H55.5196Z" fill="white"/>
<path d="M69.4336 30.128C69.4336 31.6576 69.0222 32.8666 68.1988 33.7543C67.4615 34.5444 66.5458 34.939 65.4528 34.939C64.273 34.939 63.4256 34.5134 62.9095 33.6625H62.872V38.4001H60.8822V28.7025C60.8822 27.7409 60.8569 26.754 60.8086 25.7418H62.5586L62.6697 27.1673H62.7068C63.3705 26.0932 64.3777 25.5571 65.7291 25.5571C66.7856 25.5571 67.6677 25.9761 68.3733 26.8149C69.0808 27.6547 69.4336 28.7587 69.4336 30.128ZM67.4064 30.2011C67.4064 29.3258 67.2105 28.6041 66.8167 28.0361C66.3864 27.4438 65.8085 27.1476 65.0843 27.1476C64.5932 27.1476 64.1472 27.3126 63.7486 27.6378C63.349 27.9658 63.0878 28.3942 62.9655 28.9246C62.904 29.172 62.873 29.3745 62.873 29.5338V31.0334C62.873 31.6876 63.0727 32.2398 63.4723 32.6903C63.8719 33.1412 64.3908 33.3662 65.0292 33.3662C65.7787 33.3662 66.3621 33.0756 66.7792 32.4964C67.1973 31.9163 67.4064 31.1515 67.4064 30.2011Z" fill="white"/>
<path d="M79.7357 30.128C79.7357 31.6576 79.324 32.8666 78.4999 33.7543C77.7636 34.5444 76.8479 34.939 75.7549 34.939C74.5751 34.939 73.7277 34.5134 73.2125 33.6625H73.1751V38.4001H71.1853V28.7025C71.1853 27.7409 71.16 26.754 71.1113 25.7418H72.8616L72.9724 27.1673H73.0099C73.6726 26.0932 74.6798 25.5571 76.0322 25.5571C77.0877 25.5571 77.9698 25.9761 78.6773 26.8149C79.382 27.6547 79.7357 28.7587 79.7357 30.128ZM77.7085 30.2011C77.7085 29.3258 77.5116 28.6041 77.1178 28.0361C76.6875 27.4438 76.1116 27.1476 75.3864 27.1476C74.8943 27.1476 74.4493 27.3126 74.0497 27.6378C73.6502 27.9658 73.3899 28.3942 73.2676 28.9246C73.2068 29.172 73.1751 29.3745 73.1751 29.5338V31.0334C73.1751 31.6876 73.3748 32.2398 73.7725 32.6903C74.172 33.1402 74.691 33.3662 75.3313 33.3662C76.0808 33.3662 76.6642 33.0756 77.0813 32.4964C77.4994 31.9163 77.7085 31.1515 77.7085 30.2011Z" fill="white"/>
<path d="M91.2537 31.2378C91.2537 32.2986 90.8868 33.162 90.1505 33.8282C89.3414 34.5566 88.2148 34.9201 86.767 34.9201C85.4304 34.9201 84.3588 34.6615 83.5479 34.1431L84.0089 32.4778C84.8826 33.0084 85.8411 33.2743 86.8855 33.2743C87.635 33.2743 88.2183 33.1038 88.6374 32.7646C89.0546 32.4254 89.263 31.9698 89.263 31.4018C89.263 30.8957 89.0911 30.4693 88.7466 30.1234C88.404 29.7776 87.8319 29.4561 87.0331 29.159C84.8583 28.3446 83.772 27.1515 83.772 25.5825C83.772 24.5572 84.1526 23.7165 84.9152 23.0623C85.675 22.4072 86.6886 22.0801 87.9561 22.0801C89.0866 22.0801 90.0253 22.2778 90.7748 22.6724L90.2776 24.3013C89.5774 23.9189 88.786 23.7277 87.9001 23.7277C87.2002 23.7277 86.6531 23.9011 86.2612 24.246C85.9298 24.5544 85.7637 24.9302 85.7637 25.3754C85.7637 25.8684 85.9532 26.2761 86.3339 26.5966C86.6652 26.8928 87.2675 27.2133 88.1408 27.5592C89.2095 27.9912 89.9946 28.4964 90.4994 29.0756C91.0027 29.6529 91.2537 30.3756 91.2537 31.2378Z" fill="white"/>
<path d="M97.8325 27.2415H95.6391V31.608C95.6391 32.7187 96.0255 33.2736 96.8003 33.2736C97.156 33.2736 97.4508 33.2426 97.6842 33.1808L97.7393 34.6983C97.3471 34.8451 96.831 34.9194 96.1917 34.9194C95.4057 34.9194 94.7916 34.6784 94.3482 34.1978C93.9067 33.7159 93.6848 32.9079 93.6848 31.773V27.2396H92.3779V25.74H93.6848V24.0933L95.6391 23.501V25.74H97.8325V27.2415Z" fill="white"/>
<path d="M107.729 30.1646C107.729 31.5471 107.335 32.682 106.549 33.5697C105.725 34.4833 104.631 34.939 103.267 34.939C101.953 34.939 100.907 34.5012 100.127 33.6257C99.346 32.7505 98.9561 31.6455 98.9561 30.3137C98.9561 28.92 99.3572 27.7784 100.163 26.8909C100.966 26.0024 102.051 25.5581 103.415 25.5581C104.729 25.5581 105.786 25.9958 106.584 26.8721C107.348 27.7222 107.729 28.8197 107.729 30.1646ZM105.664 30.2293C105.664 29.3998 105.488 28.6885 105.13 28.0952C104.713 27.3773 104.117 27.0193 103.344 27.0193C102.544 27.0193 101.936 27.3782 101.519 28.0952C101.162 28.6894 100.985 29.412 100.985 30.2668C100.985 31.0963 101.162 31.8076 101.519 32.3998C101.949 33.1179 102.55 33.476 103.326 33.476C104.086 33.476 104.682 33.1105 105.112 32.3812C105.479 31.7767 105.664 31.0578 105.664 30.2293Z" fill="white"/>
<path d="M114.197 27.4991C114 27.4625 113.79 27.4438 113.57 27.4438C112.87 27.4438 112.329 27.709 111.948 28.2404C111.616 28.7091 111.45 29.3014 111.45 30.0165V34.7354H109.461L109.48 28.5741C109.48 27.5375 109.455 26.5937 109.405 25.7427H111.138L111.211 27.4635H111.266C111.476 26.8721 111.808 26.3959 112.261 26.0389C112.705 25.7174 113.183 25.5571 113.7 25.5571C113.884 25.5571 114.049 25.5703 114.197 25.5937V27.4991Z" fill="white"/>
<path d="M123.096 29.8129C123.096 30.1709 123.073 30.4727 123.024 30.7192H117.054C117.077 31.6077 117.366 32.2871 117.92 32.7559C118.423 33.1748 119.074 33.3847 119.873 33.3847C120.757 33.3847 121.563 33.2433 122.288 32.9591L122.6 34.3463C121.752 34.7175 120.752 34.9022 119.597 34.9022C118.209 34.9022 117.118 34.4916 116.325 33.6715C115.533 32.8513 115.137 31.7502 115.137 30.3687C115.137 29.0125 115.506 27.8831 116.244 26.9824C117.017 26.0208 118.061 25.54 119.375 25.54C120.666 25.54 121.643 26.0208 122.307 26.9824C122.832 27.7463 123.096 28.691 123.096 29.8129ZM121.199 29.2946C121.212 28.7022 121.082 28.1905 120.813 27.7585C120.468 27.2027 119.939 26.9253 119.227 26.9253C118.576 26.9253 118.047 27.1961 117.643 27.7397C117.312 28.1718 117.115 28.6901 117.054 29.2937H121.199V29.2946Z" fill="white"/>
</svg>
