<svg width="162" height="48" viewBox="0 0 162 48" fill="none" xmlns="http://www.w3.org/2000/svg">
<path d="M1.5 6.4C1.5 3.6945 3.69452 1.5 6.40316 1.5H155.597C158.306 1.5 160.5 3.69449 160.5 6.4V41.6C160.5 44.3056 158.306 46.5 155.597 46.5H6.40316C3.69451 46.5 1.5 44.3056 1.5 41.6V6.4Z" stroke="white" stroke-width="3"/>
<path fill-rule="evenodd" clip-rule="evenodd" d="M0 41.6V6.4C0 2.86538 2.86679 0 6.40316 0H155.597C159.133 0 162 2.86538 162 6.4V41.6C162 45.1347 159.133 48 155.597 48H6.40316C2.8668 48 0 45.1347 0 41.6ZM0.960474 41.6V6.4C0.960474 3.39558 3.39726 0.96 6.40316 0.96H155.597C158.603 0.96 161.04 3.39558 161.04 6.4V41.6C161.04 44.6045 158.603 47.04 155.597 47.04H6.40316C3.39726 47.04 0.960474 44.6045 0.960474 41.6Z" fill="white"/>
<path d="M82.0835 26.0768C79.2005 26.0768 76.8185 28.3271 76.8185 31.4125C76.8185 34.4728 79.1755 36.7483 82.0835 36.7483C84.9915 36.7483 87.3482 34.4978 87.3482 31.4125C87.3482 28.3271 84.9915 26.0768 82.0835 26.0768ZM82.0835 34.6251C80.5035 34.6251 79.1255 33.2843 79.1255 31.3887C79.1255 29.4668 80.5045 28.1524 82.0835 28.1524C83.6622 28.1524 85.0411 29.4668 85.0411 31.3887C85.0411 33.2843 83.6622 34.6251 82.0835 34.6251ZM70.626 26.0768C67.718 26.0768 65.361 28.3271 65.361 31.4125C65.361 34.4728 67.718 36.7483 70.626 36.7483C73.534 36.7483 75.891 34.4978 75.891 31.4125C75.891 28.3271 73.534 26.0768 70.6257 26.0768H70.626ZM70.626 34.6251C69.046 34.6251 67.6684 33.2843 67.6684 31.3887C67.6684 29.4668 69.0473 28.1524 70.626 28.1524C72.206 28.1524 73.5839 29.4668 73.5839 31.3887C73.5839 33.2843 72.2297 34.6251 70.626 34.6251ZM57.0125 27.7207V29.971H62.3272C62.1761 31.2353 61.7512 32.171 61.124 32.8037C60.347 33.5874 59.1435 34.4475 57.0125 34.4475C53.7277 34.4475 51.1966 31.7672 51.1966 28.4542C51.1966 25.1412 53.729 22.4102 57.0125 22.4102C58.792 22.4102 60.0713 23.1185 61.0241 24.0292L62.6028 22.4354C61.2735 21.1462 59.4941 20.1602 57.0125 20.1602C52.5242 20.1602 48.7637 23.8769 48.7637 28.4038C48.7637 32.931 52.5242 36.6478 57.0125 36.6478C59.4441 36.6478 61.2498 35.8389 62.7037 34.3208C64.1828 32.829 64.6342 30.7294 64.6342 29.0354C64.6342 28.5046 64.5843 28.0239 64.5084 27.6191L57.0125 27.7207ZM112.72 29.4654C112.293 28.2767 110.94 26.0768 108.231 26.0768C105.523 26.0768 103.292 28.2266 103.292 31.4125C103.292 34.396 105.523 36.7483 108.482 36.7483C110.889 36.7483 112.268 35.2565 112.845 34.396L111.065 33.1822C110.463 34.068 109.661 34.6488 108.482 34.6488C107.304 34.6488 106.477 34.1179 105.95 33.0302L112.944 30.0718L112.72 29.4654ZM105.599 31.2616C105.549 29.2126 107.179 28.151 108.331 28.151C109.259 28.151 110.012 28.6062 110.287 29.2893L105.599 31.2616ZM99.9083 36.3947H102.215V20.7663H99.9083V36.3947ZM96.1484 27.2655H96.0734C95.5474 26.6328 94.5697 26.0768 93.3153 26.0768C90.6826 26.0768 88.301 28.429 88.301 31.4125C88.301 34.396 90.7076 36.7234 93.3153 36.7234C94.5684 36.7234 95.5461 36.1669 96.0734 35.5093H96.1484V36.2677C96.1484 38.317 95.0697 39.4034 93.3402 39.4034C91.936 39.4034 91.0582 38.3669 90.7076 37.5067L88.7028 38.3669C89.2784 39.7832 90.8088 41.5278 93.3402 41.5278C96.0475 41.5278 98.3293 39.9093 98.3293 35.9899V26.4052H96.1484V27.2655ZM93.516 34.6251C91.936 34.6251 90.608 33.2843 90.608 31.4139C90.608 29.5435 91.9373 28.1773 93.516 28.1773C95.071 28.1773 96.3241 29.5435 96.3241 31.4139C96.3232 33.259 95.0697 34.6251 93.516 34.6251ZM123.475 20.7666H117.96V36.3947H120.267V30.4766H123.475C126.033 30.4766 128.539 28.6048 128.539 25.6216C128.539 22.6381 126.033 20.7663 123.475 20.7663V20.7666ZM123.55 28.3033H120.29V22.941H123.55C125.255 22.941 126.257 24.3825 126.257 25.6213C126.233 26.8352 125.256 28.3033 123.55 28.3033ZM137.741 26.0516C136.086 26.0516 134.356 26.7851 133.654 28.4542L135.686 29.3145C136.137 28.4542 136.939 28.1762 137.792 28.1762C138.995 28.1762 140.199 28.9094 140.224 30.1986V30.3509C139.797 30.0981 138.921 29.7434 137.817 29.7434C135.611 29.7434 133.379 30.9825 133.379 33.259C133.379 35.3582 135.184 36.6981 137.19 36.6981C138.744 36.6981 139.596 35.9899 140.123 35.1557H140.198V36.3698H142.428V30.3758C142.404 27.6199 140.373 26.0513 137.741 26.0513V26.0516ZM137.465 34.5998C136.713 34.5998 135.66 34.22 135.66 33.2853C135.66 32.0715 136.963 31.6163 138.091 31.6163C139.094 31.6163 139.57 31.8439 140.198 32.147C140.022 33.5886 138.793 34.5998 137.465 34.5998ZM150.477 26.4066L147.844 33.1582H147.769L145.037 26.4063H142.556L146.667 35.8638L144.335 41.1493H146.741L153.034 26.4063H150.476L150.477 26.4066ZM129.818 36.3947H132.125V20.7663H129.818V36.3947Z" fill="white"/>
<path d="M55.7346 13.441V15.7617H54.7755V14.3997H50.365V15.7617H49.4058V13.441H50.1229C50.3621 13.1065 50.5385 12.6257 50.6518 11.9985C50.7655 11.3653 50.8221 10.6784 50.8221 9.93766V7.98438H55.0265V13.441H55.7346ZM54.0224 13.441V8.9431H51.8172V10.1079C51.8172 10.7769 51.7634 11.3981 51.6558 11.9716C51.5543 12.545 51.3991 13.0348 51.1897 13.441H54.0224Z" fill="white"/>
<path d="M59.8048 14.5434C59.1831 14.5434 58.6183 14.3971 58.1105 14.1044C57.6024 13.8057 57.2019 13.3995 56.909 12.8858C56.6221 12.3721 56.479 11.8076 56.479 11.1923C56.479 10.5771 56.6221 10.0156 56.909 9.50787C57.2019 8.99417 57.6024 8.58796 58.1105 8.28931C58.6183 7.99065 59.1831 7.84131 59.8048 7.84131C60.4262 7.84131 60.9881 7.99065 61.4901 8.28931C61.9979 8.58796 62.3984 8.99417 62.691 9.50787C62.984 10.0156 63.1306 10.5771 63.1306 11.1923C63.1306 11.8076 62.984 12.3721 62.691 12.8858C62.4042 13.3995 62.0068 13.8057 61.4991 14.1044C60.991 14.3971 60.4262 14.5434 59.8048 14.5434ZM59.8048 13.5847C60.229 13.5847 60.6174 13.4831 60.9702 13.28C61.3227 13.0769 61.6006 12.7962 61.8039 12.4378C62.0069 12.0734 62.1083 11.6583 62.1083 11.1923C62.1083 10.7264 62.0069 10.3143 61.8039 9.95587C61.6006 9.59149 61.3227 9.30777 60.9702 9.10467C60.6174 8.90157 60.229 8.80003 59.8048 8.80003C59.3803 8.80003 58.9919 8.90157 58.6391 9.10467C58.2866 9.30777 58.0058 9.59149 57.7965 9.95587C57.5935 10.3143 57.4917 10.7264 57.4917 11.1923C57.4917 11.6583 57.5935 12.0734 57.7965 12.4378C58.0058 12.7962 58.2866 13.0769 58.6391 13.28C58.9919 13.4831 59.3803 13.5847 59.8048 13.5847Z" fill="white"/>
<path d="M67.2204 14.5434C66.5986 14.5434 66.031 14.3971 65.5171 14.1044C65.003 13.8116 64.5996 13.4084 64.3069 12.8948C64.014 12.3811 63.8677 11.8136 63.8677 11.1923C63.8677 10.5711 64.014 10.0036 64.3069 9.48995C64.5996 8.97625 65.003 8.57305 65.5171 8.28035C66.031 7.98764 66.5986 7.84131 67.2204 7.84131C67.7045 7.84131 68.1437 7.93091 68.5381 8.11011C68.9383 8.28931 69.2912 8.54915 69.596 8.88963L68.8788 9.57955C68.6576 9.31673 68.4126 9.12259 68.1437 8.99715C67.8748 8.86572 67.5668 8.80003 67.2204 8.80003C66.7901 8.80003 66.3956 8.89859 66.0371 9.09571C65.6843 9.29283 65.4035 9.57357 65.1944 9.93795C64.985 10.2963 64.8807 10.7145 64.8807 11.1923C64.8807 11.6702 64.985 12.0913 65.1944 12.4557C65.4035 12.8141 65.6843 13.0919 66.0371 13.289C66.3956 13.4861 66.7901 13.5847 67.2204 13.5847C67.9375 13.5847 68.5471 13.286 69.0491 12.6887L69.7752 13.3876C69.4644 13.7519 69.0907 14.0356 68.6547 14.2388C68.2183 14.4419 67.7403 14.5434 67.2204 14.5434Z" fill="white"/>
<path d="M72.1962 8.9431H70.4033V7.98438H74.9931V8.9431H73.2002V14.3997H72.1962V8.9431Z" fill="white"/>
<path d="M76.6551 14.5431C76.4339 14.5431 76.2456 14.5043 76.0904 14.4266V13.45C76.2876 13.5575 76.4669 13.6113 76.6282 13.6113C76.7896 13.6113 76.918 13.5814 77.0137 13.5217C77.1094 13.456 77.1959 13.3365 77.2737 13.1633L77.4978 12.6973L75.3643 7.98438H76.4848L77.9819 11.5415H78.0357L79.5417 7.98438H80.6622L78.206 13.3783C78.0267 13.7785 77.8087 14.0742 77.5516 14.2653C77.3006 14.4505 77.0019 14.5431 76.6551 14.5431Z" fill="white"/>
<path d="M81.5327 7.98438H86.3108V14.3997H85.3067V8.9431H82.5367V14.3997H81.5327V7.98438Z" fill="white"/>
<path d="M87.7744 7.98438H88.7784V10.6455H91.7546V7.98438H92.7497V14.3997H91.7546V11.5953H88.7784V14.3997H87.7744V7.98438Z" fill="white"/>
<path d="M97.1329 14.5434C96.5115 14.5434 95.9468 14.3971 95.4387 14.1044C94.9309 13.8057 94.5304 13.3995 94.2374 12.8858C93.9506 12.3721 93.8071 11.8076 93.8071 11.1923C93.8071 10.5771 93.9506 10.0156 94.2374 9.50787C94.5304 8.99417 94.9309 8.58796 95.4387 8.28931C95.9468 7.99065 96.5115 7.84131 97.1329 7.84131C97.7547 7.84131 98.3162 7.99065 98.8183 8.28931C99.3263 8.58796 99.7269 8.99417 100.019 9.50787C100.312 10.0156 100.459 10.5771 100.459 11.1923C100.459 11.8076 100.312 12.3721 100.019 12.8858C99.7326 13.3995 99.3353 13.8057 98.8272 14.1044C98.3194 14.3971 97.7547 14.5434 97.1329 14.5434ZM97.1329 13.5847C97.5575 13.5847 97.9458 13.4831 98.2983 13.28C98.6511 13.0769 98.929 12.7962 99.132 12.4378C99.3353 12.0734 99.4368 11.6583 99.4368 11.1923C99.4368 10.7264 99.3353 10.3143 99.132 9.95587C98.929 9.59149 98.6511 9.30777 98.2983 9.10467C97.9458 8.90157 97.5575 8.80003 97.1329 8.80003C96.7087 8.80003 96.3204 8.90157 95.9676 9.10467C95.6151 9.30777 95.3343 9.59149 95.1249 9.95587C94.9219 10.3143 94.8201 10.7264 94.8201 11.1923C94.8201 11.6583 94.9219 12.0734 95.1249 12.4378C95.3343 12.7962 95.6151 13.0769 95.9676 13.28C96.3204 13.4831 96.7087 13.5847 97.1329 13.5847Z" fill="white"/>
<path d="M103.707 7.98438H106.118C106.459 7.98438 106.773 8.05903 107.06 8.20837C107.353 8.35772 107.586 8.5638 107.759 8.82661C107.932 9.08943 108.019 9.37916 108.019 9.69573C108.019 10.0123 107.938 10.2871 107.777 10.5201C107.622 10.753 107.415 10.9292 107.158 11.0487V11.1025C107.481 11.216 107.741 11.4041 107.938 11.6669C108.142 11.9298 108.243 12.2374 108.243 12.5898C108.243 12.9422 108.151 13.2558 107.965 13.5306C107.786 13.8054 107.541 14.0204 107.23 14.1757C106.925 14.3251 106.591 14.3997 106.226 14.3997H103.707V7.98438ZM106.074 10.6724C106.361 10.6724 106.591 10.5828 106.764 10.4036C106.943 10.2244 107.033 10.0183 107.033 9.78534C107.033 9.55238 106.946 9.34927 106.773 9.17605C106.606 8.99685 106.385 8.90725 106.109 8.90725H104.711V10.6724H106.074ZM106.226 13.4679C106.531 13.4679 106.773 13.3723 106.952 13.1812C107.138 12.99 107.23 12.769 107.23 12.5181C107.23 12.2613 107.135 12.0403 106.943 11.8551C106.758 11.664 106.507 11.5684 106.19 11.5684H104.711V13.4679H106.226Z" fill="white"/>
<path fill-rule="evenodd" clip-rule="evenodd" d="M34.6048 28.9001L29.8119 24.0628L34.6009 19.2018C38.0215 21.1043 40.6481 22.5579 41.1527 22.8245C42.7826 23.7086 41.9543 24.8469 41.1527 25.2773C40.9791 25.3642 39.533 26.1663 37.3873 27.3564L37.3854 27.3574C37.0399 27.549 36.6762 27.7507 36.2971 27.9612C35.7622 28.2581 35.1958 28.5725 34.6048 28.9001ZM33.732 29.3837L29.138 24.7469L13.7862 40.3293C13.9712 40.273 14.1676 40.1879 14.3772 40.0717C14.5343 39.985 14.9163 39.7744 15.4778 39.4647L15.5081 39.448L15.5112 39.4464C18.6709 37.7047 27.3464 32.9223 33.732 29.3837ZM12.532 40.234C12.0815 39.9277 11.8457 39.2871 11.8457 38.4778V9.77418C11.8457 8.87943 12.1583 8.32887 12.5912 8.04663L28.4621 24.0647L12.532 40.234ZM13.7662 7.86816L29.136 23.3806L33.7125 18.7353C30.8747 17.1733 15.4019 8.65725 14.377 8.10714C14.1822 7.99034 13.9748 7.91175 13.7662 7.86816Z" fill="white"/>
</svg>
