<svg width="30" height="31" viewBox="0 0 30 31" fill="none" xmlns="http://www.w3.org/2000/svg">
<path d="M29.9098 9.31561C29.8368 7.71893 29.5832 6.62854 29.2124 5.67456C28.8359 4.67366 28.2454 3.76706 27.4823 3.0177C26.7332 2.25461 25.8263 1.66386 24.8254 1.28712C23.8712 0.916565 22.7811 0.663193 21.1844 0.590637C19.5847 0.517395 19.0736 0.5 15 0.5C10.9264 0.5 10.4153 0.517395 8.81561 0.590179C7.21893 0.663193 6.12877 0.916794 5.17456 1.28758C4.17366 1.66409 3.26706 2.25461 2.5177 3.0177C1.75461 3.76683 1.16386 4.67343 0.787125 5.67433C0.416565 6.62854 0.163193 7.71893 0.0906372 9.31538C0.017395 10.9153 0 11.4261 0 15.4998C0 19.5736 0.017395 20.0847 0.0906372 21.6844C0.163422 23.2808 0.417023 24.3712 0.787811 25.3254C1.16432 26.3261 1.75484 27.2329 2.51793 27.9821C3.26706 28.7452 4.17389 29.3357 5.17479 29.7122C6.12877 30.0832 7.21916 30.3366 8.81584 30.4096C10.4157 30.4826 10.9266 30.4998 15.0002 30.4998C19.0739 30.4998 19.585 30.4826 21.1846 30.4096C22.7813 30.3366 23.8715 30.0832 24.8257 29.7122C26.8405 28.9331 28.4333 27.3403 29.2124 25.3254C29.5834 24.3712 29.8368 23.2808 29.9098 21.6844C29.9826 20.0845 30 19.5736 30 15.5C30 11.4261 29.9826 10.9153 29.9098 9.31561ZM27.2097 21.5615C27.1431 23.024 26.8987 23.8183 26.6933 24.3467C26.1887 25.655 25.1548 26.6889 23.8465 27.1936C23.318 27.3989 22.5238 27.6433 21.0612 27.7099C19.4799 27.7823 19.0054 27.7974 15 27.7974C10.9943 27.7974 10.5201 27.7823 8.93852 27.7099C7.4762 27.6433 6.68198 27.3989 6.15326 27.1936C5.50186 26.953 4.91249 26.5696 4.42863 26.0714C3.93036 25.5875 3.54698 24.9984 3.30643 24.3467C3.10112 23.8183 2.85667 23.024 2.79007 21.5615C2.71797 19.9799 2.70264 19.5054 2.70264 15.5002C2.70264 11.4948 2.71797 11.0206 2.79007 9.43875C2.8569 7.9762 3.10112 7.18198 3.30643 6.65349C3.54698 6.00186 3.93059 5.41249 4.42863 4.92863C4.91249 4.43036 5.50186 4.04698 6.15349 3.80666C6.68198 3.60112 7.4762 3.3569 8.93875 3.29007C10.5203 3.21797 10.9948 3.20264 15 3.20264H14.9998C19.005 3.20264 19.4794 3.21797 21.0612 3.2903C22.5238 3.3569 23.3178 3.60135 23.8465 3.80666C24.4979 4.04721 25.0873 4.43059 25.5711 4.92863C26.0694 5.41249 26.4528 6.00186 26.6931 6.65349C26.8987 7.18198 27.1431 7.9762 27.2097 9.43875C27.2818 11.0203 27.2971 11.4948 27.2971 15.5C27.2971 19.5054 27.282 19.9797 27.2097 21.5615Z" fill="#FBE946"/>
<path d="M14.9999 7.79688C10.7459 7.79688 7.29736 11.2457 7.29736 15.4997C7.29736 19.7537 10.7459 23.2022 14.9999 23.2022C19.2542 23.2022 22.7027 19.7537 22.7027 15.4997C22.7027 11.2457 19.2542 7.79688 14.9999 7.79688ZM14.9999 20.4996C12.2387 20.4994 10 18.2609 10.0002 15.4994C10.0002 12.7382 12.2387 10.4995 15.0002 10.4995C17.7616 10.4997 20.0001 12.7382 20.0001 15.4994C20.0001 18.2609 17.7614 20.4996 14.9999 20.4996Z" fill="#FBE946"/>
<path d="M24.8066 7.49303C24.8066 8.48706 24.0007 9.29295 23.0067 9.29295C22.0124 9.29295 21.2065 8.48706 21.2065 7.49303C21.2065 6.49876 22.0124 5.69287 23.0067 5.69287C24.0007 5.69287 24.8066 6.49876 24.8066 7.49303Z" fill="#FBE946"/>
</svg>
