<svg width="35" height="29" viewBox="0 0 35 29" fill="none" xmlns="http://www.w3.org/2000/svg">
<path d="M35 3.81477C33.6984 4.37692 32.3116 4.74954 30.8656 4.93046C32.3531 4.056 33.4884 2.68185 34.0222 1.02554C32.6353 1.83969 31.1041 2.41477 29.4722 2.73569C28.1553 1.35508 26.2784 0.5 24.2309 0.5C20.2584 0.5 17.0603 3.67477 17.0603 7.56677C17.0603 8.12677 17.1084 8.66523 17.2266 9.17785C11.2612 8.89139 5.98281 6.07631 2.43687 1.788C1.81781 2.84554 1.45469 4.056 1.45469 5.35908C1.45469 7.80585 2.73438 9.97477 4.64187 11.2305C3.48906 11.2089 2.35812 10.8794 1.4 10.3603C1.4 10.3818 1.4 10.4098 1.4 10.4378C1.4 13.8711 3.88719 16.7228 7.14875 17.3797C6.56469 17.5369 5.92812 17.6123 5.2675 17.6123C4.80813 17.6123 4.34437 17.5865 3.90906 17.4917C4.83875 20.2895 7.47688 22.3465 10.6138 22.4132C8.1725 24.2935 5.07281 25.4265 1.71719 25.4265C1.12875 25.4265 0.564375 25.4006 0 25.3295C3.17844 27.3477 6.94531 28.5 11.0075 28.5C24.2113 28.5 31.43 17.7308 31.43 8.396C31.43 8.08369 31.4191 7.78215 31.4037 7.48277C32.8278 6.48769 34.0244 5.24492 35 3.81477Z" fill="#FBE946"/>
</svg>
