<svg width="161" height="60" viewBox="0 0 161 60" fill="none" xmlns="http://www.w3.org/2000/svg">
<path fill-rule="evenodd" clip-rule="evenodd" d="M35.1562 0H43.2692L30.048 25.9187H39.6634L56.7909 59.4953H48.6778L21.5396 33.5766H0L35.1562 0ZM91.5634 16.8282C91.5634 17.3857 91.4533 17.9066 91.2332 18.3907C91.0277 18.8749 90.7418 19.3003 90.3748 19.6672C90.0081 20.0194 89.5753 20.3055 89.0764 20.5254C88.5923 20.7309 88.0714 20.8337 87.5138 20.8337C86.9563 20.8337 86.4281 20.7309 85.9292 20.5254C85.4451 20.3055 85.0196 20.0194 84.6529 19.6672C84.3008 19.3003 84.0146 18.8749 83.7945 18.3907C83.5892 17.9066 83.4864 17.3857 83.4864 16.8282C83.4864 16.2853 83.5892 15.7718 83.7945 15.2876C84.0146 14.7888 84.3008 14.3633 84.6529 14.0112C85.0196 13.6444 85.4451 13.3583 85.9292 13.1529C86.4281 12.9328 86.9563 12.8228 87.5138 12.8228C88.0714 12.8228 88.5923 12.9328 89.0764 13.1529C89.5753 13.3583 90.0081 13.6444 90.3748 14.0112C90.7418 14.3633 91.0277 14.7888 91.2332 15.2876C91.4533 15.7718 91.5634 16.2853 91.5634 16.8282ZM90.5289 46.8028H84.4768V23.2324H90.5289V46.8028ZM81.8138 46.8028H59.7178V15.2436H66.0341V40.4867H81.8138V46.8028ZM95.1285 46.8028H101.137V33.3341C101.137 32.7178 101.254 32.1383 101.489 31.5954C101.724 31.038 102.046 30.5537 102.457 30.1429C102.868 29.7321 103.352 29.4094 103.91 29.1746C104.467 28.9399 105.062 28.8225 105.692 28.8225C106.309 28.8225 106.888 28.9399 107.431 29.1746C107.974 29.4094 108.451 29.7321 108.862 30.1429C109.272 30.5537 109.595 31.038 109.83 31.5954C110.065 32.1383 110.182 32.7178 110.182 33.3341V46.8028H116.19V33.3341C116.19 31.8816 115.911 30.5171 115.354 29.2406C114.811 27.9495 114.063 26.8271 113.109 25.8735C112.155 24.9051 111.04 24.1494 109.764 23.6066C108.487 23.049 107.13 22.7704 105.692 22.7704C104.357 22.7704 103.073 23.0124 101.841 23.4966C100.623 23.9661 99.5301 24.6411 98.5618 25.5214L96.5811 23.2324H95.1285V46.8028ZM131.992 46.8028C130.539 46.8028 129.175 46.5315 127.898 45.9887C126.622 45.4311 125.499 44.6754 124.531 43.7218C123.577 42.7534 122.822 41.631 122.264 40.3545C121.721 39.0782 121.45 37.7136 121.45 36.2612V29.2626H118.523V23.2764H121.45V13.8571H127.436V23.2764H136.547V29.2626H127.436V36.2612C127.436 36.8919 127.553 37.4863 127.788 38.0438C128.023 38.5866 128.346 39.0634 128.757 39.4742C129.167 39.885 129.652 40.2152 130.209 40.4646C130.767 40.6993 131.361 40.8167 131.992 40.8167H136.547V46.8028H131.992ZM155.694 45.3064C156.252 44.9102 156.773 44.4921 157.257 44.052L159.238 46.8028H160.69V23.2324H154.682V36.2612C154.682 36.8919 154.564 37.5082 154.33 38.1097C154.095 38.6966 153.772 39.2248 153.361 39.6943C152.951 40.1638 152.466 40.5454 151.909 40.8388C151.366 41.1174 150.786 41.2569 150.17 41.2569C149.539 41.2569 148.945 41.1469 148.388 40.9268C147.845 40.7066 147.368 40.3839 146.957 39.9585C146.546 39.5329 146.216 39.0122 145.967 38.3959C145.732 37.7649 145.615 37.0534 145.615 36.2612V23.2324H139.628V36.2612C139.628 37.9483 139.9 39.4742 140.443 40.8388C141 42.1886 141.756 43.3403 142.71 44.2941C143.678 45.2331 144.8 45.9592 146.077 46.4728C147.353 46.9864 148.718 47.2431 150.17 47.2431C150.83 47.2431 151.476 47.1549 152.107 46.9789C152.753 46.8176 153.376 46.5975 153.978 46.3187C154.579 46.0253 155.151 45.6877 155.694 45.3064Z" fill="white"/>
</svg>
