<svg width="35" height="21" viewBox="0 0 35 21" fill="none" xmlns="http://www.w3.org/2000/svg">
<path d="M34.8144 18.4011C34.772 18.3115 34.7325 18.2371 34.6958 18.1776C34.0885 17.1041 32.9281 15.7865 31.2152 14.2244L31.179 14.1886L31.1609 14.1711L31.1426 14.1531H31.1242C30.3468 13.4257 29.8545 12.9366 29.6483 12.6862C29.2711 12.2092 29.1866 11.7264 29.3927 11.2372C29.5384 10.8676 30.0855 10.087 31.0328 8.89437C31.5311 8.26232 31.9258 7.75575 32.2172 7.37411C34.3191 4.63141 35.2303 2.87879 34.9508 2.11556L34.8422 1.9372C34.7693 1.82983 34.581 1.7316 34.2776 1.64201C33.9735 1.55261 33.5849 1.53783 33.111 1.59741L27.8629 1.63299C27.7779 1.60342 27.6565 1.60618 27.4983 1.64201C27.3403 1.67784 27.2613 1.69582 27.2613 1.69582L27.17 1.74062L27.0975 1.79443C27.0367 1.83001 26.9699 1.8926 26.8969 1.98206C26.8244 2.07121 26.7637 2.17583 26.7151 2.29504C26.1438 3.73787 25.4941 5.07934 24.765 6.31938C24.3155 7.0588 23.9027 7.69962 23.5257 8.24221C23.1491 8.78461 22.8333 9.18424 22.5783 9.4404C22.323 9.69682 22.0926 9.90224 21.8857 10.0574C21.6791 10.2127 21.5214 10.2782 21.4122 10.2543C21.3027 10.2303 21.1996 10.2065 21.102 10.1826C20.9321 10.0753 20.7953 9.92924 20.6923 9.74443C20.5887 9.55962 20.519 9.32701 20.4826 9.04679C20.4463 8.76638 20.4249 8.52519 20.4188 8.3224C20.4131 8.11986 20.4157 7.83337 20.428 7.46376C20.4407 7.09395 20.4463 6.84374 20.4463 6.71255C20.4463 6.25936 20.4553 5.76752 20.4734 5.2369C20.4918 4.70627 20.5066 4.28585 20.5191 3.97612C20.5315 3.66608 20.5372 3.33806 20.5372 2.99225C20.5372 2.64643 20.5158 2.37523 20.4734 2.1784C20.4315 1.98181 20.3673 1.79099 20.2826 1.60599C20.1973 1.42118 20.0726 1.27822 19.909 1.17673C19.745 1.07537 19.5411 0.994927 19.2985 0.935161C18.6546 0.792138 17.8346 0.714769 16.8382 0.70274C14.5787 0.678934 13.1268 0.822146 12.4829 1.13219C12.2278 1.26318 11.9969 1.44217 11.7905 1.66857C11.5718 1.931 11.5413 2.07421 11.6992 2.09777C12.4282 2.20496 12.9443 2.46137 13.2481 2.86676L13.3575 3.08158C13.4427 3.23657 13.5277 3.51097 13.6128 3.90439C13.6977 4.29781 13.7526 4.73302 13.7767 5.20977C13.8373 6.08038 13.8373 6.82563 13.7767 7.44559C13.7159 8.0658 13.6584 8.54862 13.6036 8.89443C13.5488 9.24024 13.4668 9.52046 13.3575 9.73503C13.2481 9.94966 13.1753 10.0808 13.1387 10.1285C13.1023 10.1761 13.0719 10.2061 13.0478 10.2179C12.8899 10.2772 12.7257 10.3075 12.5557 10.3075C12.3855 10.3075 12.179 10.2239 11.9361 10.0569C11.6933 9.8899 11.4412 9.66048 11.18 9.36829C10.9187 9.07604 10.6241 8.66765 10.296 8.14304C9.96808 7.61843 9.62789 6.99841 9.27556 6.28298L8.98407 5.76414C8.80184 5.43035 8.55292 4.94433 8.23704 4.30652C7.92097 3.66846 7.6416 3.05126 7.39874 2.45505C7.30166 2.20464 7.15581 2.01401 6.96146 1.88283L6.87025 1.82901C6.80962 1.7814 6.71228 1.73084 6.57875 1.67697C6.44504 1.62315 6.30551 1.58456 6.1596 1.56082L1.1665 1.5964C0.656267 1.5964 0.31007 1.70986 0.127781 1.93645L0.0548272 2.04364C0.0183821 2.10334 0 2.19869 0 2.32994C0 2.46112 0.0364451 2.62213 0.109399 2.81276C0.838301 4.49421 1.63097 6.11584 2.48739 7.67788C3.34382 9.23993 4.08804 10.4982 4.71961 11.4516C5.3513 12.4056 5.99519 13.306 6.65126 14.1524C7.30734 14.9991 7.74161 15.5417 7.95409 15.7801C8.16683 16.0189 8.33393 16.1974 8.45539 16.3166L8.91105 16.7458C9.20261 17.0321 9.63076 17.3749 10.1957 17.7742C10.7607 18.1739 11.3863 18.5673 12.0727 18.9551C12.7592 19.3424 13.5579 19.6584 14.4691 19.9027C15.3803 20.1474 16.2671 20.2455 17.1297 20.1982H19.2254C19.6504 20.1622 19.9724 20.031 20.1913 19.8046L20.2638 19.7149C20.3126 19.6438 20.3582 19.5332 20.4003 19.3844C20.443 19.2354 20.4641 19.0712 20.4641 18.8926C20.4517 18.3799 20.4915 17.9179 20.5823 17.5065C20.6732 17.0953 20.7767 16.7853 20.8925 16.5765C21.0082 16.3679 21.1388 16.1918 21.2841 16.0491C21.4298 15.9061 21.5336 15.8195 21.5944 15.7896C21.655 15.7596 21.7033 15.7393 21.7397 15.7271C22.0313 15.6317 22.3744 15.724 22.7696 16.0045C23.1645 16.2847 23.5349 16.6307 23.8814 17.042C24.2276 17.4535 24.6436 17.9153 25.1295 18.428C25.6157 18.9408 26.0408 19.322 26.4051 19.5728L26.7694 19.7874C27.0127 19.9306 27.3286 20.0618 27.7174 20.181C28.1055 20.3002 28.4456 20.33 28.7376 20.2704L33.4025 20.199C33.8639 20.199 34.223 20.124 34.4776 19.9752C34.7328 19.8262 34.8844 19.662 34.9333 19.4834C34.9821 19.3046 34.9847 19.1017 34.9425 18.8749C34.8993 18.6487 34.8568 18.4905 34.8144 18.4011Z" fill="#FBE946"/>
</svg>
