<svg width="36" height="25" viewBox="0 0 36 25" fill="none" xmlns="http://www.w3.org/2000/svg">
<path d="M34.5669 3.91187C34.1601 2.38226 32.968 1.17656 31.4563 0.764667C28.6944 0 17.6467 0 17.6467 0C17.6467 0 6.59931 0 3.83739 0.735518C2.35478 1.14714 1.13363 2.38253 0.726764 3.91187C0 6.70575 0 12.5 0 12.5C0 12.5 0 18.3234 0.726764 21.0881C1.1339 22.6175 2.3257 23.8234 3.83766 24.2353C6.62839 25 17.647 25 17.647 25C17.647 25 28.6944 25 31.4563 24.2645C32.9683 23.8529 34.1601 22.6469 34.5672 21.1176C35.294 18.3234 35.294 12.5294 35.294 12.5294C35.294 12.5294 35.323 6.70575 34.5669 3.91187Z" fill="#FBE946"/>
<path d="M14.0391 18.1167L23.1671 12.6167L14.0391 7.1167V18.1167Z" fill="#262626"/>
</svg>
