<svg width="66" height="59" viewBox="0 0 66 59" fill="none" xmlns="http://www.w3.org/2000/svg">
<path d="M39.3251 32.5512L39.7655 32.6559L40.2059 32.5512C43.662 31.7297 46.7784 29.7422 48.9807 26.9548C51.1831 24.1675 52.396 20.676 52.396 17.1236V6.86336L39.7655 0.237549L27.1348 6.86336V17.1235C27.1348 20.6759 28.3478 24.1673 30.5501 26.9547C32.7526 29.7421 35.8689 31.7296 39.3251 32.5512ZM30.9434 9.16629L39.7655 4.53834L48.5874 9.16629V17.1236C48.5874 22.5769 44.9825 27.2872 39.7655 28.7326C34.5484 27.2872 30.9434 22.5769 30.9434 17.1236V9.16629Z" fill="#FBE946"/>
<path d="M45.9449 14.9699L43.2518 12.2769L38.7495 16.779L36.27 14.332L33.5947 17.0429L38.7673 22.1473L45.9449 14.9699Z" fill="#FBE946"/>
<path d="M63.7018 33.1937C61.3619 30.853 57.61 30.7624 55.1597 32.9875L46.8991 40.4897C45.9485 38.2914 43.7595 36.7489 41.2161 36.7489H30.8165C28.3071 34.1972 24.8796 32.7499 21.2797 32.7499C18.6371 32.7499 16.088 33.5307 13.9262 34.9548C13.3848 32.5108 11.2018 30.677 8.59737 30.677H0.514648V58.7625H8.59737C10.7397 58.7625 12.5969 57.5214 13.4901 55.7208L22.4893 58.7625H46.2693L63.6209 42.0285C64.8267 40.8658 65.499 39.303 65.5144 37.6281C65.5296 35.953 64.886 34.3783 63.7018 33.1937ZM10.2478 53.3033C10.2478 54.2133 9.50737 54.9537 8.59737 54.9537H4.32324V34.4856H8.59737C9.50737 34.4856 10.2478 35.226 10.2478 36.136V53.3033ZM60.9771 39.2871L44.732 54.9537H23.1156L14.0564 51.8918V39.8562C15.8779 37.7603 18.5071 36.5584 21.2796 36.5584C24.0695 36.5584 26.715 37.7743 28.5379 39.8946L29.1077 40.5574H41.216C42.5285 40.5574 43.5963 41.6252 43.5963 42.9378C43.5963 44.2503 42.5285 45.3181 41.216 45.3181H30.3509V49.1267H41.216C43.5853 49.1267 45.6467 47.7879 46.6865 45.8275L57.7201 35.8069C58.6632 34.9505 60.1076 34.9853 61.0081 35.8863C61.464 36.3423 61.7118 36.9484 61.7058 37.593C61.7001 38.2379 61.4412 38.8394 60.9771 39.2871Z" fill="#FBE946"/>
</svg>
