<svg width="70" height="70" viewBox="0 0 70 70" fill="none" xmlns="http://www.w3.org/2000/svg">
<path d="M69.2908 20.874L45.7751 7.9616C45.3655 7.73676 44.8689 7.73676 44.4592 7.9616L35.6163 12.8172C35.4166 12.8728 35.2302 12.9748 35.0721 13.1158L20.9436 20.874C20.5062 21.1144 20.2344 21.5737 20.2344 22.0725V24.8677H4.46045C3.70529 24.8677 3.09326 25.4803 3.09326 26.2349C3.09326 26.9901 3.70529 27.6021 4.46045 27.6021H20.2344V32.524H12.396C11.6409 32.524 11.0288 33.1365 11.0288 33.8912C11.0288 34.6463 11.6409 35.2584 12.396 35.2584H20.2344V42.3677H8.75C7.99484 42.3677 7.38281 42.9803 7.38281 43.7349C7.38281 44.4901 7.99484 45.1021 8.75 45.1021H20.2344V47.8979C20.2344 48.3967 20.5062 48.856 20.9436 49.0963L44.4592 62.0088C44.6643 62.1215 44.8907 62.1775 45.1172 62.1775C45.3436 62.1775 45.5701 62.1215 45.7751 62.0088L69.2908 49.0963C69.7282 48.856 70 48.3967 70 47.8979V41.7755C70 41.0208 69.388 40.4083 68.6328 40.4083C67.8777 40.4083 67.2656 41.0208 67.2656 41.7755V47.0888L46.4844 58.5V35.794L53.0933 32.1651V37.9244C53.0933 38.4082 53.3486 38.8558 53.7646 39.1014C53.9788 39.228 54.2197 39.2916 54.4605 39.2916C54.687 39.2916 54.9139 39.2355 55.1196 39.1223L60.1589 36.3489C60.5952 36.1086 60.8665 35.6498 60.8665 35.151V27.8969L67.2656 24.3833V30.838C67.2656 31.5931 67.8777 32.2051 68.6328 32.2051C69.388 32.2051 70 31.5931 70 30.838V22.0725C70 21.5737 69.7282 21.1144 69.2908 20.874ZM43.75 58.5L22.9688 47.0888V24.3833L43.75 35.794V58.5ZM45.1172 33.4255L24.4422 22.0725L30.9401 18.5044L51.6156 29.8574L45.1172 33.4255ZM54.4563 28.2974L33.7807 16.9444L36.0222 15.714L56.6972 27.067L54.4563 28.2974ZM58.1322 34.343L55.8277 35.6114V30.6639L58.1322 29.3981V34.343ZM59.5378 25.507L38.8628 14.154L45.1172 10.72L65.7922 22.0725L59.5378 25.507Z" fill="#FBE946"/>
<path d="M68.6328 34.9402C68.2734 34.9402 67.9204 35.0849 67.6662 35.3407C67.412 35.5949 67.2656 35.9464 67.2656 36.3074C67.2656 36.6668 67.412 37.0198 67.6662 37.274C67.9204 37.5282 68.2734 37.6746 68.6328 37.6746C68.9922 37.6746 69.3452 37.5282 69.5995 37.274C69.8537 37.0198 70 36.6668 70 36.3074C70 35.9464 69.8537 35.5949 69.5995 35.3407C69.3452 35.0849 68.9922 34.9402 68.6328 34.9402Z" fill="#FBE946"/>
<path d="M3.32664 42.3679H1.36719C0.61203 42.3679 0 42.9805 0 43.7351C0 44.4903 0.61203 45.1023 1.36719 45.1023H3.32664C4.0818 45.1023 4.69383 44.4903 4.69383 43.7351C4.69383 42.9805 4.0818 42.3679 3.32664 42.3679Z" fill="#FBE946"/>
<path d="M8.29492 33.8914C8.29492 33.5319 8.14859 33.1795 7.89384 32.9252C7.63963 32.6705 7.28716 32.5242 6.92773 32.5242C6.56778 32.5242 6.2153 32.6705 5.96109 32.9252C5.70528 33.1795 5.56055 33.5319 5.56055 33.8914C5.56055 34.2513 5.70528 34.6038 5.96109 34.858C6.2153 35.1122 6.56778 35.2585 6.92773 35.2585C7.28716 35.2585 7.63963 35.1127 7.89384 34.858C8.14859 34.6038 8.29492 34.2513 8.29492 33.8914Z" fill="#FBE946"/>
</svg>
