<svg width="61" height="60" viewBox="0 0 61 60" fill="none" xmlns="http://www.w3.org/2000/svg">
<g clip-path="url(#clip0_95_427)">
<path d="M56.5438 33.6328C56.5438 30.725 54.1782 28.3594 51.2704 28.3594H43.4384C44.4087 25.7359 45.0105 22.6198 45.3623 20.2593C45.7176 17.8764 45.0202 15.4643 43.4489 13.6413C41.8824 11.8237 39.6075 10.7812 37.2079 10.7812C36.2371 10.7812 35.4501 11.5683 35.4501 12.5391C35.4501 16.7856 33.0097 23.1962 30.1616 24.6241C26.9559 26.2311 20.6493 28.012 19.3932 28.3594C18.6089 28.3594 2.57535 28.3594 1.81738 28.3594C0.846602 28.3594 0.0595703 29.1464 0.0595703 30.1172V54.7266C0.0594531 55.6973 0.846484 56.4844 1.81727 56.4844H7.0907V58.2422C7.0907 59.213 7.87773 60 8.84852 60H16.1141C18.2611 60 20.1112 58.7096 20.9331 56.8643L33.2659 59.9475C33.4054 59.9823 33.5486 60 33.6923 60H44.2391C47.1469 60 49.5126 57.6343 49.5126 54.7266C49.5126 54.0408 49.381 53.3852 49.1418 52.7837C51.3787 52.1732 53.0282 50.1232 53.0282 47.6953C53.0282 47.0095 52.8966 46.354 52.6574 45.7525C54.8943 45.1419 56.5438 43.092 56.5438 40.6641C56.5438 39.3146 56.0344 38.0821 55.1978 37.1484C56.0344 36.2148 56.5438 34.9822 56.5438 33.6328ZM7.09059 52.9688H3.57496V31.875H7.09059V52.9688ZM17.8718 54.7266C17.8718 55.6958 17.0833 56.4844 16.114 56.4844H10.6062V31.875H17.8718V54.7266ZM40.7235 38.9062H51.2704C52.2397 38.9062 53.0282 39.6948 53.0282 40.6641C53.0282 41.6333 52.2397 42.4219 51.2704 42.4219C49.945 42.4219 41.8068 42.4219 40.7235 42.4219C39.7527 42.4219 38.9657 43.2089 38.9657 44.1797C38.9657 45.1505 39.7527 45.9375 40.7235 45.9375H47.7548C48.724 45.9375 49.5126 46.7261 49.5126 47.6953C49.5126 48.6646 48.724 49.4531 47.7548 49.4531C47.0096 49.4531 41.4687 49.4531 40.7235 49.4531C39.7527 49.4531 38.9657 50.2402 38.9657 51.2109C38.9657 52.1817 39.7527 52.9688 40.7235 52.9688H44.2391C45.2084 52.9688 45.997 53.7573 45.997 54.7266C45.997 55.6958 45.2084 56.4844 44.2391 56.4844H33.9087L21.3876 53.3542V31.4503C23.7592 30.7693 28.7897 29.2446 31.7371 27.767C35.7742 25.743 38.2463 19.3413 38.8311 14.5841C39.5788 14.8576 40.2538 15.3191 40.7862 15.9367C41.689 16.984 42.0896 18.3705 41.8852 19.7408C41.0526 25.3253 40.0081 27.6176 39.1513 29.331C38.8789 29.8759 38.9079 30.523 39.2282 31.0412C39.5485 31.5594 40.1143 31.875 40.7235 31.875H51.2704C52.2397 31.875 53.0282 32.6636 53.0282 33.6328C53.0282 34.6021 52.2397 35.3906 51.2704 35.3906H40.7235C39.7527 35.3906 38.9657 36.1777 38.9657 37.1484C38.9657 38.1192 39.7527 38.9062 40.7235 38.9062Z" fill="#FBE946"/>
<path d="M38.9658 0C37.995 0 37.208 0.787031 37.208 1.75781V5.50781C37.208 6.47859 37.995 7.26562 38.9658 7.26562C39.9366 7.26562 40.7236 6.47859 40.7236 5.50781V1.75781C40.7236 0.787031 39.9366 0 38.9658 0Z" fill="#FBE946"/>
<path d="M29.0223 8.89847L26.5364 6.41257C25.85 5.72608 24.737 5.72608 24.0505 6.41257C23.364 7.09905 23.364 8.21198 24.0505 8.89847L26.5364 11.3844C27.2228 12.0709 28.3359 12.0709 29.0223 11.3844C29.7088 10.6979 29.7088 9.58495 29.0223 8.89847Z" fill="#FBE946"/>
<path d="M23.1455 19.5703H19.6299C18.6591 19.5703 17.8721 20.3573 17.8721 21.3281C17.8721 22.2989 18.6591 23.0859 19.6299 23.0859H23.1455C24.1163 23.0859 24.9033 22.2989 24.9033 21.3281C24.9033 20.3573 24.1163 19.5703 23.1455 19.5703Z" fill="#FBE946"/>
<path d="M58.3018 19.5703H54.7861C53.8154 19.5703 53.0283 20.3573 53.0283 21.3281C53.0283 22.2989 53.8154 23.0859 54.7861 23.0859H58.3018C59.2725 23.0859 60.0596 22.2989 60.0596 21.3281C60.0596 20.3573 59.2725 19.5703 58.3018 19.5703Z" fill="#FBE946"/>
<path d="M53.8812 6.41257C53.1948 5.72608 52.0818 5.72608 51.3953 6.41257L48.9094 8.89847C48.2229 9.58495 48.2229 10.6979 48.9094 11.3844C49.5958 12.0709 50.7089 12.0709 51.3953 11.3844L53.8812 8.89847C54.5677 8.21198 54.5677 7.09905 53.8812 6.41257Z" fill="#FBE946"/>
</g>
<defs>
<clipPath id="clip0_95_427">
<rect width="60" height="60" fill="white" transform="translate(0.0595703)"/>
</clipPath>
</defs>
</svg>
