<svg width="66" height="65" viewBox="0 0 66 65" fill="none" xmlns="http://www.w3.org/2000/svg">
<g clip-path="url(#clip0_95_654)">
<path d="M53.3198 48.75C53.246 48.75 53.1695 48.7445 53.0929 48.731C52.3496 48.6091 51.8468 47.9104 51.9698 47.1737L54.074 34.607C54.3609 32.9468 53.5794 31.2649 52.131 30.4145L40.2465 23.511C39.5961 23.1318 39.3775 22.3031 39.7573 21.6558C40.1426 21.0112 40.9816 20.7999 41.6292 21.171L53.5192 28.0772C55.9432 29.4964 57.2439 32.3022 56.7684 35.0566L54.6642 47.6152C54.5549 48.2787 53.9756 48.75 53.3198 48.75Z" fill="#FBE946"/>
<path d="M12.324 48.75C11.6681 48.75 11.0888 48.2788 10.9795 47.6179L8.87528 35.0513C8.39979 32.3023 9.7033 29.4992 12.1217 28.0827L24.1265 21.0952C24.7632 20.716 25.6104 20.9273 25.9957 21.5773C26.3783 22.2192 26.1597 23.0506 25.5065 23.4271L13.5072 30.4146C12.0644 31.2623 11.2828 32.9469 11.5697 34.599L13.6739 47.1738C13.7969 47.9104 13.2941 48.6092 12.5508 48.731C12.4743 48.7446 12.3977 48.75 12.324 48.75Z" fill="#FBE946"/>
<path d="M32.8111 64.9999C32.6171 64.9999 32.4176 64.9565 32.2345 64.8726L17.2155 57.9555C16.7346 57.7334 16.4258 57.2567 16.4258 56.7286V40.7684C16.4258 40.3053 16.6635 39.8747 17.057 39.6255C17.4478 39.3763 17.9397 39.3438 18.366 39.5415L33.385 46.4586C33.8659 46.6807 34.1747 47.1601 34.1747 47.6855V63.6457C34.1747 64.1088 33.937 64.5394 33.5435 64.7886C33.3248 64.9294 33.068 64.9999 32.8111 64.9999ZM19.1585 55.8647L31.4447 61.5251V48.5522L19.1585 42.8917V55.8647Z" fill="#FBE946"/>
<path d="M32.8327 64.9999C32.5758 64.9999 32.3189 64.9295 32.0976 64.7887C31.7013 64.5395 31.4663 64.1089 31.4663 63.6458V47.6856C31.4663 47.1602 31.7751 46.6808 32.2561 46.4587L47.275 39.5416C47.6986 39.3466 48.1932 39.3764 48.584 39.6256C48.9802 39.8775 49.218 40.3081 49.218 40.7712V56.7314C49.218 57.2568 48.9092 57.7362 48.4282 57.9583L33.4093 64.8754C33.2234 64.9566 33.0267 64.9999 32.8327 64.9999ZM34.199 48.5522V61.5251L46.4853 55.8647V42.8918L34.199 48.5522ZM47.8516 56.7287H47.8789H47.8516Z" fill="#FBE946"/>
<path d="M47.8517 42.1253C47.6577 42.1253 47.4609 42.0847 47.2751 41.998L32.8328 35.3463L18.3658 41.998C17.6881 42.3203 16.8683 42.0197 16.554 41.3399C16.237 40.6628 16.5322 39.8584 17.2181 39.5442L32.2589 32.6272C32.6223 32.4592 33.0404 32.4592 33.4094 32.6272L48.4283 39.5442C49.1115 39.8584 49.4066 40.6628 49.0896 41.3426C48.8601 41.8328 48.3655 42.1253 47.8517 42.1253Z" fill="#FBE946"/>
<path d="M41.0199 51.4583C40.2657 51.4583 39.6535 50.8516 39.6535 50.1041V44.7958L25.5664 38.136C24.8833 37.8137 24.5963 37.0066 24.9215 36.3322C25.2467 35.6579 26.0638 35.3708 26.7415 35.6931L41.5173 42.6752C42.0228 42.8783 42.3863 43.3631 42.3863 43.9291V50.1041C42.3863 50.8516 41.7741 51.4583 41.0199 51.4583Z" fill="#FBE946"/>
<path d="M9.78245 21.6667H7.04974C4.7898 21.6667 2.95068 19.844 2.95068 17.6042V12.1875C2.95068 9.94771 4.7898 8.125 7.04974 8.125H9.78245C12.0424 8.125 13.8815 9.94771 13.8815 12.1875V17.6042C13.8815 19.844 12.0424 21.6667 9.78245 21.6667ZM7.04974 10.8333C6.29825 10.8333 5.68339 11.4427 5.68339 12.1875V17.6042C5.68339 18.349 6.29825 18.9583 7.04974 18.9583H9.78245C10.5339 18.9583 11.1488 18.349 11.1488 17.6042V12.1875C11.1488 11.4427 10.5339 10.8333 9.78245 10.8333H7.04974Z" fill="#FBE946"/>
<path d="M15.0592 2.70833H1.39565C0.641423 2.70833 0.0292969 2.10167 0.0292969 1.35417C0.0292969 0.606667 0.641423 0 1.39565 0H15.0592C15.8134 0 16.4255 0.606667 16.4255 1.35417C16.4255 2.10167 15.8134 2.70833 15.0592 2.70833Z" fill="#FBE946"/>
<path d="M8.22768 10.8333C7.47345 10.8333 6.86133 10.2267 6.86133 9.47917V1.35417C6.86133 0.606667 7.47345 0 8.22768 0C8.98191 0 9.59403 0.606667 9.59403 1.35417V9.47917C9.59403 10.2267 8.98191 10.8333 8.22768 10.8333Z" fill="#FBE946"/>
<path d="M58.9714 21.6667H56.2387C53.9788 21.6667 52.1396 19.844 52.1396 17.6042V12.1875C52.1396 9.94771 53.9788 8.125 56.2387 8.125H58.9714C61.2314 8.125 63.0705 9.94771 63.0705 12.1875V17.6042C63.0705 19.844 61.2314 21.6667 58.9714 21.6667ZM56.2387 10.8333C55.4872 10.8333 54.8724 11.4427 54.8724 12.1875V17.6042C54.8724 18.349 55.4872 18.9583 56.2387 18.9583H58.9714C59.7229 18.9583 60.3378 18.349 60.3378 17.6042V12.1875C60.3378 11.4427 59.7229 10.8333 58.9714 10.8333H56.2387Z" fill="#FBE946"/>
<path d="M64.2477 2.70833H50.5841C49.8299 2.70833 49.2178 2.10167 49.2178 1.35417C49.2178 0.606667 49.8299 0 50.5841 0H64.2477C65.0019 0 65.614 0.606667 65.614 1.35417C65.614 2.10167 65.0019 2.70833 64.2477 2.70833Z" fill="#FBE946"/>
<path d="M57.4162 10.8333C56.6619 10.8333 56.0498 10.2267 56.0498 9.47917V1.35417C56.0498 0.606667 56.6619 0 57.4162 0C58.1704 0 58.7825 0.606667 58.7825 1.35417V9.47917C58.7825 10.2267 58.1704 10.8333 57.4162 10.8333Z" fill="#FBE946"/>
<path d="M33.013 27.0833C28.433 27.0833 24.3503 24.746 22.1669 20.9814C21.4427 19.7328 20.0928 18.9583 18.6444 18.9583H12.5177C11.7635 18.9583 11.1514 18.3516 11.1514 17.6041C11.1514 16.8566 11.7635 16.2499 12.5177 16.2499H18.6417C21.0656 16.2499 23.3228 17.5472 24.5362 19.6299C26.2359 22.5576 29.4086 24.3749 32.8217 24.3749C36.4234 24.3749 39.5961 22.5576 41.2986 19.6326C42.5064 17.5472 44.7664 16.2499 47.193 16.2499H51.9507V13.5416H47.193C44.7664 13.5416 42.5064 12.2443 41.2986 10.1589C39.5961 7.23388 36.4234 5.41659 33.013 5.41659C29.4086 5.41659 26.2359 7.23388 24.5362 10.1589C23.3228 12.2443 21.0656 13.5416 18.6444 13.5416H12.5177C11.7635 13.5416 11.1514 12.9349 11.1514 12.1874C11.1514 11.4399 11.7635 10.8333 12.5177 10.8333H18.6417C20.09 10.8333 21.44 10.0587 22.1669 8.80742C24.3503 5.04554 28.4357 2.70825 32.8217 2.70825C37.399 2.70825 41.4817 5.04554 43.6678 8.81013C44.3893 10.0587 45.742 10.8333 47.193 10.8333H53.317C54.0713 10.8333 54.6834 11.4399 54.6834 12.1874V17.6041C54.6834 18.3516 54.0713 18.9583 53.317 18.9583H47.193C45.742 18.9583 44.392 19.7328 43.6678 20.9814C41.4817 24.746 37.399 27.0833 33.013 27.0833Z" fill="#FBE946"/>
</g>
<defs>
<clipPath id="clip0_95_654">
<rect width="65.585" height="65" fill="white" transform="translate(0.0292969)"/>
</clipPath>
</defs>
</svg>
