<svg width="61" height="64" viewBox="0 0 61 64" fill="none" xmlns="http://www.w3.org/2000/svg">
<path d="M60.5415 49.863L55.8488 23.3008C54.8774 17.8031 50.1203 13.8128 44.5375 13.8128H37.8986C38.9024 12.386 39.4942 10.6495 39.4942 8.77626C39.4943 3.93709 35.557 0 30.7178 0C25.8786 0 21.9414 3.93709 21.9414 8.77639C21.9414 10.6496 22.5332 12.3861 23.537 13.8129H16.8981C11.3153 13.8129 6.55816 17.8032 5.58679 23.301L0.894108 49.863C0.301831 53.2158 1.21716 56.6346 3.40513 59.2432C5.59322 61.8518 8.8007 63.3478 12.2055 63.3478H49.2303C52.6351 63.3478 55.8426 61.8517 58.0306 59.2433C60.2187 56.6348 61.1336 53.2158 60.5415 49.863ZM30.7178 3.73987C33.4949 3.73987 35.7543 5.99923 35.7543 8.77639C35.7543 11.5535 33.4948 13.8129 30.7178 13.8129C27.9408 13.8129 25.6813 11.5535 25.6813 8.77639C25.6813 5.99923 27.9406 3.73987 30.7178 3.73987ZM55.1652 56.8398C53.6895 58.599 51.5264 59.6079 49.2303 59.6079H12.2055C9.90941 59.6079 7.74618 58.599 6.27062 56.8398C4.79507 55.0805 4.17767 52.7747 4.57719 50.5137L9.26987 23.9516C9.925 20.2439 13.1332 17.5527 16.8982 17.5527H44.5377C48.3028 17.5527 51.5111 20.2437 52.1661 23.9514L56.8588 50.5135C57.2581 52.7747 56.6406 55.0805 55.1652 56.8398Z" fill="#FBE946"/>
</svg>
