<svg width="103" height="36" viewBox="0 0 103 36" fill="none" xmlns="http://www.w3.org/2000/svg">
<path fill-rule="evenodd" clip-rule="evenodd" d="M32.9893 4.90645C32.9893 5.46657 32.8787 5.98985 32.6576 6.47626C32.4511 6.96266 32.1638 7.39008 31.7952 7.75872C31.4267 8.11248 30.992 8.39994 30.4907 8.6209C30.0043 8.82736 29.481 8.93058 28.9208 8.93058C28.3608 8.93058 27.8301 8.82736 27.3289 8.6209C26.8425 8.39994 26.4151 8.11248 26.0466 7.75872C25.6929 7.39008 25.4054 6.96266 25.1843 6.47626C24.978 5.98985 24.8748 5.46657 24.8748 4.90645C24.8748 4.36105 24.978 3.84516 25.1843 3.35873C25.4054 2.85756 25.6929 2.43011 26.0466 2.07634C26.4151 1.70783 26.8425 1.42039 27.3289 1.21403C27.8301 0.992941 28.3608 0.882385 28.9208 0.882385C29.481 0.882385 30.0043 0.992941 30.4907 1.21403C30.992 1.42039 31.4267 1.70783 31.7952 2.07634C32.1638 2.43011 32.4511 2.85756 32.6576 3.35873C32.8787 3.84516 32.9893 4.36105 32.9893 4.90645ZM31.95 35.0205H25.8698V11.3404H31.95V35.0205ZM23.1943 35.0205H0.995605V3.31451H7.34129V28.675H23.1943V35.0205ZM36.571 35.0205H42.6072V21.4892C42.6072 20.87 42.7251 20.2877 42.9609 19.7424C43.1968 19.1824 43.521 18.6958 43.9337 18.2831C44.3464 17.8703 44.833 17.5462 45.393 17.3103C45.9532 17.0745 46.5502 16.9566 47.1839 16.9566C47.8031 16.9566 48.3853 17.0745 48.9306 17.3103C49.476 17.5462 49.9552 17.8703 50.3679 18.2831C50.7807 18.6958 51.1048 19.1824 51.3407 19.7424C51.5765 20.2877 51.6944 20.87 51.6944 21.4892V35.0205H57.7304V21.4892C57.7304 20.0298 57.4505 18.6591 56.8903 17.3766C56.345 16.0795 55.5932 14.9519 54.6351 13.9938C53.6771 13.0209 52.5568 12.2618 51.2744 11.7164C49.9919 11.1562 48.6285 10.8763 47.1839 10.8763C45.8427 10.8763 44.5529 11.1195 43.3147 11.6058C42.0912 12.0775 40.993 12.7557 40.0203 13.6401L38.0303 11.3404H36.571V35.0205ZM73.6057 35.0205C72.1464 35.0205 70.7756 34.7479 69.4932 34.2026C68.2107 33.6424 67.0831 32.8832 66.1104 31.9252C65.1521 30.9522 64.3932 29.8246 63.833 28.5422C63.2876 27.2599 63.0148 25.889 63.0148 24.4298V17.3987H60.0742V11.3847H63.0148V1.92156H69.0288V11.3847H78.1826V17.3987H69.0288V24.4298C69.0288 25.0635 69.1467 25.6607 69.3826 26.2207C69.6184 26.766 69.9428 27.2451 70.3555 27.6578C70.7682 28.0705 71.2546 28.4022 71.8148 28.6528C72.3749 28.8886 72.9718 29.0065 73.6057 29.0065H78.1826V35.0205H73.6057ZM97.4184 33.5171C97.9786 33.1191 98.5019 32.699 98.9883 32.2569L100.978 35.0205H102.437V11.3404H96.4014V24.4298C96.4014 25.0635 96.2834 25.6827 96.0476 26.287C95.8117 26.8766 95.4874 27.4072 95.0746 27.8789C94.6619 28.3506 94.1755 28.734 93.6155 29.0288C93.07 29.3087 92.4877 29.4488 91.8687 29.4488C91.2349 29.4488 90.6379 29.3382 90.0779 29.1171C89.5324 28.896 89.0533 28.5718 88.6406 28.1443C88.2279 27.7167 87.8963 27.1936 87.6456 26.5745C87.4098 25.9406 87.2919 25.2257 87.2919 24.4298V11.3404H81.2779V24.4298C81.2779 26.1248 81.5507 27.6578 82.096 29.0288C82.6562 30.3848 83.4152 31.5418 84.3734 32.5001C85.3462 33.4434 86.4738 34.173 87.7562 34.689C89.0386 35.2049 90.4094 35.4628 91.8687 35.4628C92.532 35.4628 93.1806 35.3743 93.8144 35.1974C94.463 35.0354 95.0895 34.8142 95.6938 34.5341C96.2981 34.2393 96.873 33.9002 97.4184 33.5171Z" fill="#6F6F6F"/>
</svg>
