<svg width="30" height="15" viewBox="0 0 30 15" fill="none" xmlns="http://www.w3.org/2000/svg">
<path d="M27.8571 0.700409C29.0406 0.700409 30 1.24556 30 1.91808C30 2.59056 29.0406 3.13574 27.8571 3.13574H2.14275C0.959499 3.13574 0 2.59056 0 1.91808C0 1.24556 0.959499 0.700409 2.14275 0.700409H27.8571ZM27.8571 6.38288C29.0406 6.38288 30 6.92802 30 7.60054C30 8.27303 29.0406 8.81821 27.8571 8.81821H2.14275C0.959499 8.81821 0 8.27303 0 7.60054C0 6.92802 0.959499 6.38288 2.14275 6.38288H27.8571ZM27.8571 12.0653C29.0406 12.0653 30 12.6105 30 13.283C30 13.9555 29.0406 14.5007 27.8571 14.5007H12.8571C11.6737 14.5007 10.7143 13.9555 10.7143 13.283C10.7143 12.6105 11.6737 12.0653 12.8571 12.0653H27.8571Z" fill="#6F6F6F"/>
</svg>
